<?xml version="1.0" encoding="utf-8" standalone="no"?>
<!DOCTYPE svg PUBLIC "-//W3C//DTD SVG 1.1//EN"
  "http://www.w3.org/Graphics/SVG/1.1/DTD/svg11.dtd">
<svg xmlns:xlink="http://www.w3.org/1999/xlink" width="432pt" height="288pt" viewBox="0 0 432 288" xmlns="http://www.w3.org/2000/svg" version="1.1">
 <metadata>
  <rdf:RDF xmlns:dc="http://purl.org/dc/elements/1.1/" xmlns:cc="http://creativecommons.org/ns#" xmlns:rdf="http://www.w3.org/1999/02/22-rdf-syntax-ns#">
   <cc:Work>
    <dc:type rdf:resource="http://purl.org/dc/dcmitype/StillImage"/>
    <dc:date>2022-09-07T17:19:45.369257</dc:date>
    <dc:format>image/svg+xml</dc:format>
    <dc:creator>
     <cc:Agent>
      <dc:title>Matplotlib v3.5.1, https://matplotlib.org/</dc:title>
     </cc:Agent>
    </dc:creator>
   </cc:Work>
  </rdf:RDF>
 </metadata>
 <defs>
  <style type="text/css">*{stroke-linejoin: round; stroke-linecap: butt}</style>
 </defs>
 <g id="figure_1">
  <g id="patch_1">
   <path d="M 0 288 
L 432 288 
L 432 0 
L 0 0 
L 0 288 
z
" style="fill: none"/>
  </g>
  <g id="axes_1">
   <g id="patch_2">
    <path d="M 54 252 
L 388.8 252 
L 388.8 34.56 
L 54 34.56 
z
" style="fill: #ffffff"/>
   </g>
   <g id="matplotlib.axis_1">
    <g id="xtick_1">
     <g id="line2d_1">
      <defs>
       <path id="m076f061ac5" d="M 0 0 
L 0 3.5 
" style="stroke: #000000; stroke-width: 0.8"/>
      </defs>
      <g>
       <use xlink:href="#m076f061ac5" x="69.218182" y="252" style="stroke: #000000; stroke-width: 0.8"/>
      </g>
     </g>
     <g id="text_1">
      <!-- 0 -->
      <g transform="translate(66.036932 266.598437)scale(0.1 -0.1)">
       <defs>
        <path id="DejaVuSans-30" d="M 2034 4250 
Q 1547 4250 1301 3770 
Q 1056 3291 1056 2328 
Q 1056 1369 1301 889 
Q 1547 409 2034 409 
Q 2525 409 2770 889 
Q 3016 1369 3016 2328 
Q 3016 3291 2770 3770 
Q 2525 4250 2034 4250 
z
M 2034 4750 
Q 2819 4750 3233 4129 
Q 3647 3509 3647 2328 
Q 3647 1150 3233 529 
Q 2819 -91 2034 -91 
Q 1250 -91 836 529 
Q 422 1150 422 2328 
Q 422 3509 836 4129 
Q 1250 4750 2034 4750 
z
" transform="scale(0.015625)"/>
       </defs>
       <use xlink:href="#DejaVuSans-30"/>
      </g>
     </g>
    </g>
    <g id="xtick_2">
     <g id="line2d_2">
      <g>
       <use xlink:href="#m076f061ac5" x="130.705785" y="252" style="stroke: #000000; stroke-width: 0.8"/>
      </g>
     </g>
     <g id="text_2">
      <!-- 20 -->
      <g transform="translate(124.343285 266.598437)scale(0.1 -0.1)">
       <defs>
        <path id="DejaVuSans-32" d="M 1228 531 
L 3431 531 
L 3431 0 
L 469 0 
L 469 531 
Q 828 903 1448 1529 
Q 2069 2156 2228 2338 
Q 2531 2678 2651 2914 
Q 2772 3150 2772 3378 
Q 2772 3750 2511 3984 
Q 2250 4219 1831 4219 
Q 1534 4219 1204 4116 
Q 875 4013 500 3803 
L 500 4441 
Q 881 4594 1212 4672 
Q 1544 4750 1819 4750 
Q 2544 4750 2975 4387 
Q 3406 4025 3406 3419 
Q 3406 3131 3298 2873 
Q 3191 2616 2906 2266 
Q 2828 2175 2409 1742 
Q 1991 1309 1228 531 
z
" transform="scale(0.015625)"/>
       </defs>
       <use xlink:href="#DejaVuSans-32"/>
       <use xlink:href="#DejaVuSans-30" x="63.623047"/>
      </g>
     </g>
    </g>
    <g id="xtick_3">
     <g id="line2d_3">
      <g>
       <use xlink:href="#m076f061ac5" x="192.193388" y="252" style="stroke: #000000; stroke-width: 0.8"/>
      </g>
     </g>
     <g id="text_3">
      <!-- 40 -->
      <g transform="translate(185.830888 266.598437)scale(0.1 -0.1)">
       <defs>
        <path id="DejaVuSans-34" d="M 2419 4116 
L 825 1625 
L 2419 1625 
L 2419 4116 
z
M 2253 4666 
L 3047 4666 
L 3047 1625 
L 3713 1625 
L 3713 1100 
L 3047 1100 
L 3047 0 
L 2419 0 
L 2419 1100 
L 313 1100 
L 313 1709 
L 2253 4666 
z
" transform="scale(0.015625)"/>
       </defs>
       <use xlink:href="#DejaVuSans-34"/>
       <use xlink:href="#DejaVuSans-30" x="63.623047"/>
      </g>
     </g>
    </g>
    <g id="xtick_4">
     <g id="line2d_4">
      <g>
       <use xlink:href="#m076f061ac5" x="253.680992" y="252" style="stroke: #000000; stroke-width: 0.8"/>
      </g>
     </g>
     <g id="text_4">
      <!-- 60 -->
      <g transform="translate(247.318492 266.598437)scale(0.1 -0.1)">
       <defs>
        <path id="DejaVuSans-36" d="M 2113 2584 
Q 1688 2584 1439 2293 
Q 1191 2003 1191 1497 
Q 1191 994 1439 701 
Q 1688 409 2113 409 
Q 2538 409 2786 701 
Q 3034 994 3034 1497 
Q 3034 2003 2786 2293 
Q 2538 2584 2113 2584 
z
M 3366 4563 
L 3366 3988 
Q 3128 4100 2886 4159 
Q 2644 4219 2406 4219 
Q 1781 4219 1451 3797 
Q 1122 3375 1075 2522 
Q 1259 2794 1537 2939 
Q 1816 3084 2150 3084 
Q 2853 3084 3261 2657 
Q 3669 2231 3669 1497 
Q 3669 778 3244 343 
Q 2819 -91 2113 -91 
Q 1303 -91 875 529 
Q 447 1150 447 2328 
Q 447 3434 972 4092 
Q 1497 4750 2381 4750 
Q 2619 4750 2861 4703 
Q 3103 4656 3366 4563 
z
" transform="scale(0.015625)"/>
       </defs>
       <use xlink:href="#DejaVuSans-36"/>
       <use xlink:href="#DejaVuSans-30" x="63.623047"/>
      </g>
     </g>
    </g>
    <g id="xtick_5">
     <g id="line2d_5">
      <g>
       <use xlink:href="#m076f061ac5" x="315.168595" y="252" style="stroke: #000000; stroke-width: 0.8"/>
      </g>
     </g>
     <g id="text_5">
      <!-- 80 -->
      <g transform="translate(308.806095 266.598437)scale(0.1 -0.1)">
       <defs>
        <path id="DejaVuSans-38" d="M 2034 2216 
Q 1584 2216 1326 1975 
Q 1069 1734 1069 1313 
Q 1069 891 1326 650 
Q 1584 409 2034 409 
Q 2484 409 2743 651 
Q 3003 894 3003 1313 
Q 3003 1734 2745 1975 
Q 2488 2216 2034 2216 
z
M 1403 2484 
Q 997 2584 770 2862 
Q 544 3141 544 3541 
Q 544 4100 942 4425 
Q 1341 4750 2034 4750 
Q 2731 4750 3128 4425 
Q 3525 4100 3525 3541 
Q 3525 3141 3298 2862 
Q 3072 2584 2669 2484 
Q 3125 2378 3379 2068 
Q 3634 1759 3634 1313 
Q 3634 634 3220 271 
Q 2806 -91 2034 -91 
Q 1263 -91 848 271 
Q 434 634 434 1313 
Q 434 1759 690 2068 
Q 947 2378 1403 2484 
z
M 1172 3481 
Q 1172 3119 1398 2916 
Q 1625 2713 2034 2713 
Q 2441 2713 2670 2916 
Q 2900 3119 2900 3481 
Q 2900 3844 2670 4047 
Q 2441 4250 2034 4250 
Q 1625 4250 1398 4047 
Q 1172 3844 1172 3481 
z
" transform="scale(0.015625)"/>
       </defs>
       <use xlink:href="#DejaVuSans-38"/>
       <use xlink:href="#DejaVuSans-30" x="63.623047"/>
      </g>
     </g>
    </g>
    <g id="xtick_6">
     <g id="line2d_6">
      <g>
       <use xlink:href="#m076f061ac5" x="376.656198" y="252" style="stroke: #000000; stroke-width: 0.8"/>
      </g>
     </g>
     <g id="text_6">
      <!-- 100 -->
      <g transform="translate(367.112448 266.598437)scale(0.1 -0.1)">
       <defs>
        <path id="DejaVuSans-31" d="M 794 531 
L 1825 531 
L 1825 4091 
L 703 3866 
L 703 4441 
L 1819 4666 
L 2450 4666 
L 2450 531 
L 3481 531 
L 3481 0 
L 794 0 
L 794 531 
z
" transform="scale(0.015625)"/>
       </defs>
       <use xlink:href="#DejaVuSans-31"/>
       <use xlink:href="#DejaVuSans-30" x="63.623047"/>
       <use xlink:href="#DejaVuSans-30" x="127.246094"/>
      </g>
     </g>
    </g>
    <g id="text_7">
     <!-- Epoch -->
     <g transform="translate(206.089063 280.276563)scale(0.1 -0.1)">
      <defs>
       <path id="DejaVuSans-45" d="M 628 4666 
L 3578 4666 
L 3578 4134 
L 1259 4134 
L 1259 2753 
L 3481 2753 
L 3481 2222 
L 1259 2222 
L 1259 531 
L 3634 531 
L 3634 0 
L 628 0 
L 628 4666 
z
" transform="scale(0.015625)"/>
       <path id="DejaVuSans-70" d="M 1159 525 
L 1159 -1331 
L 581 -1331 
L 581 3500 
L 1159 3500 
L 1159 2969 
Q 1341 3281 1617 3432 
Q 1894 3584 2278 3584 
Q 2916 3584 3314 3078 
Q 3713 2572 3713 1747 
Q 3713 922 3314 415 
Q 2916 -91 2278 -91 
Q 1894 -91 1617 61 
Q 1341 213 1159 525 
z
M 3116 1747 
Q 3116 2381 2855 2742 
Q 2594 3103 2138 3103 
Q 1681 3103 1420 2742 
Q 1159 2381 1159 1747 
Q 1159 1113 1420 752 
Q 1681 391 2138 391 
Q 2594 391 2855 752 
Q 3116 1113 3116 1747 
z
" transform="scale(0.015625)"/>
       <path id="DejaVuSans-6f" d="M 1959 3097 
Q 1497 3097 1228 2736 
Q 959 2375 959 1747 
Q 959 1119 1226 758 
Q 1494 397 1959 397 
Q 2419 397 2687 759 
Q 2956 1122 2956 1747 
Q 2956 2369 2687 2733 
Q 2419 3097 1959 3097 
z
M 1959 3584 
Q 2709 3584 3137 3096 
Q 3566 2609 3566 1747 
Q 3566 888 3137 398 
Q 2709 -91 1959 -91 
Q 1206 -91 779 398 
Q 353 888 353 1747 
Q 353 2609 779 3096 
Q 1206 3584 1959 3584 
z
" transform="scale(0.015625)"/>
       <path id="DejaVuSans-63" d="M 3122 3366 
L 3122 2828 
Q 2878 2963 2633 3030 
Q 2388 3097 2138 3097 
Q 1578 3097 1268 2742 
Q 959 2388 959 1747 
Q 959 1106 1268 751 
Q 1578 397 2138 397 
Q 2388 397 2633 464 
Q 2878 531 3122 666 
L 3122 134 
Q 2881 22 2623 -34 
Q 2366 -91 2075 -91 
Q 1284 -91 818 406 
Q 353 903 353 1747 
Q 353 2603 823 3093 
Q 1294 3584 2113 3584 
Q 2378 3584 2631 3529 
Q 2884 3475 3122 3366 
z
" transform="scale(0.015625)"/>
       <path id="DejaVuSans-68" d="M 3513 2113 
L 3513 0 
L 2938 0 
L 2938 2094 
Q 2938 2591 2744 2837 
Q 2550 3084 2163 3084 
Q 1697 3084 1428 2787 
Q 1159 2491 1159 1978 
L 1159 0 
L 581 0 
L 581 4863 
L 1159 4863 
L 1159 2956 
Q 1366 3272 1645 3428 
Q 1925 3584 2291 3584 
Q 2894 3584 3203 3211 
Q 3513 2838 3513 2113 
z
" transform="scale(0.015625)"/>
      </defs>
      <use xlink:href="#DejaVuSans-45"/>
      <use xlink:href="#DejaVuSans-70" x="63.183594"/>
      <use xlink:href="#DejaVuSans-6f" x="126.660156"/>
      <use xlink:href="#DejaVuSans-63" x="187.841797"/>
      <use xlink:href="#DejaVuSans-68" x="242.822266"/>
     </g>
    </g>
   </g>
   <g id="matplotlib.axis_2">
    <g id="ytick_1">
     <g id="line2d_7">
      <defs>
       <path id="m30c4adffa3" d="M 0 0 
L -3.5 0 
" style="stroke: #000000; stroke-width: 0.8"/>
      </defs>
      <g>
       <use xlink:href="#m30c4adffa3" x="54" y="242.039417" style="stroke: #000000; stroke-width: 0.8"/>
      </g>
     </g>
     <g id="text_8">
      <!-- 0.1 -->
      <g transform="translate(31.096875 245.838636)scale(0.1 -0.1)">
       <defs>
        <path id="DejaVuSans-2e" d="M 684 794 
L 1344 794 
L 1344 0 
L 684 0 
L 684 794 
z
" transform="scale(0.015625)"/>
       </defs>
       <use xlink:href="#DejaVuSans-30"/>
       <use xlink:href="#DejaVuSans-2e" x="63.623047"/>
       <use xlink:href="#DejaVuSans-31" x="95.410156"/>
      </g>
     </g>
    </g>
    <g id="ytick_2">
     <g id="line2d_8">
      <g>
       <use xlink:href="#m30c4adffa3" x="54" y="216.390952" style="stroke: #000000; stroke-width: 0.8"/>
      </g>
     </g>
     <g id="text_9">
      <!-- 0.2 -->
      <g transform="translate(31.096875 220.190171)scale(0.1 -0.1)">
       <use xlink:href="#DejaVuSans-30"/>
       <use xlink:href="#DejaVuSans-2e" x="63.623047"/>
       <use xlink:href="#DejaVuSans-32" x="95.410156"/>
      </g>
     </g>
    </g>
    <g id="ytick_3">
     <g id="line2d_9">
      <g>
       <use xlink:href="#m30c4adffa3" x="54" y="190.742486" style="stroke: #000000; stroke-width: 0.8"/>
      </g>
     </g>
     <g id="text_10">
      <!-- 0.3 -->
      <g transform="translate(31.096875 194.541705)scale(0.1 -0.1)">
       <defs>
        <path id="DejaVuSans-33" d="M 2597 2516 
Q 3050 2419 3304 2112 
Q 3559 1806 3559 1356 
Q 3559 666 3084 287 
Q 2609 -91 1734 -91 
Q 1441 -91 1130 -33 
Q 819 25 488 141 
L 488 750 
Q 750 597 1062 519 
Q 1375 441 1716 441 
Q 2309 441 2620 675 
Q 2931 909 2931 1356 
Q 2931 1769 2642 2001 
Q 2353 2234 1838 2234 
L 1294 2234 
L 1294 2753 
L 1863 2753 
Q 2328 2753 2575 2939 
Q 2822 3125 2822 3475 
Q 2822 3834 2567 4026 
Q 2313 4219 1838 4219 
Q 1578 4219 1281 4162 
Q 984 4106 628 3988 
L 628 4550 
Q 988 4650 1302 4700 
Q 1616 4750 1894 4750 
Q 2613 4750 3031 4423 
Q 3450 4097 3450 3541 
Q 3450 3153 3228 2886 
Q 3006 2619 2597 2516 
z
" transform="scale(0.015625)"/>
       </defs>
       <use xlink:href="#DejaVuSans-30"/>
       <use xlink:href="#DejaVuSans-2e" x="63.623047"/>
       <use xlink:href="#DejaVuSans-33" x="95.410156"/>
      </g>
     </g>
    </g>
    <g id="ytick_4">
     <g id="line2d_10">
      <g>
       <use xlink:href="#m30c4adffa3" x="54" y="165.094021" style="stroke: #000000; stroke-width: 0.8"/>
      </g>
     </g>
     <g id="text_11">
      <!-- 0.4 -->
      <g transform="translate(31.096875 168.89324)scale(0.1 -0.1)">
       <use xlink:href="#DejaVuSans-30"/>
       <use xlink:href="#DejaVuSans-2e" x="63.623047"/>
       <use xlink:href="#DejaVuSans-34" x="95.410156"/>
      </g>
     </g>
    </g>
    <g id="ytick_5">
     <g id="line2d_11">
      <g>
       <use xlink:href="#m30c4adffa3" x="54" y="139.445555" style="stroke: #000000; stroke-width: 0.8"/>
      </g>
     </g>
     <g id="text_12">
      <!-- 0.5 -->
      <g transform="translate(31.096875 143.244774)scale(0.1 -0.1)">
       <defs>
        <path id="DejaVuSans-35" d="M 691 4666 
L 3169 4666 
L 3169 4134 
L 1269 4134 
L 1269 2991 
Q 1406 3038 1543 3061 
Q 1681 3084 1819 3084 
Q 2600 3084 3056 2656 
Q 3513 2228 3513 1497 
Q 3513 744 3044 326 
Q 2575 -91 1722 -91 
Q 1428 -91 1123 -41 
Q 819 9 494 109 
L 494 744 
Q 775 591 1075 516 
Q 1375 441 1709 441 
Q 2250 441 2565 725 
Q 2881 1009 2881 1497 
Q 2881 1984 2565 2268 
Q 2250 2553 1709 2553 
Q 1456 2553 1204 2497 
Q 953 2441 691 2322 
L 691 4666 
z
" transform="scale(0.015625)"/>
       </defs>
       <use xlink:href="#DejaVuSans-30"/>
       <use xlink:href="#DejaVuSans-2e" x="63.623047"/>
       <use xlink:href="#DejaVuSans-35" x="95.410156"/>
      </g>
     </g>
    </g>
    <g id="ytick_6">
     <g id="line2d_12">
      <g>
       <use xlink:href="#m30c4adffa3" x="54" y="113.79709" style="stroke: #000000; stroke-width: 0.8"/>
      </g>
     </g>
     <g id="text_13">
      <!-- 0.6 -->
      <g transform="translate(31.096875 117.596309)scale(0.1 -0.1)">
       <use xlink:href="#DejaVuSans-30"/>
       <use xlink:href="#DejaVuSans-2e" x="63.623047"/>
       <use xlink:href="#DejaVuSans-36" x="95.410156"/>
      </g>
     </g>
    </g>
    <g id="ytick_7">
     <g id="line2d_13">
      <g>
       <use xlink:href="#m30c4adffa3" x="54" y="88.148624" style="stroke: #000000; stroke-width: 0.8"/>
      </g>
     </g>
     <g id="text_14">
      <!-- 0.7 -->
      <g transform="translate(31.096875 91.947843)scale(0.1 -0.1)">
       <defs>
        <path id="DejaVuSans-37" d="M 525 4666 
L 3525 4666 
L 3525 4397 
L 1831 0 
L 1172 0 
L 2766 4134 
L 525 4134 
L 525 4666 
z
" transform="scale(0.015625)"/>
       </defs>
       <use xlink:href="#DejaVuSans-30"/>
       <use xlink:href="#DejaVuSans-2e" x="63.623047"/>
       <use xlink:href="#DejaVuSans-37" x="95.410156"/>
      </g>
     </g>
    </g>
    <g id="ytick_8">
     <g id="line2d_14">
      <g>
       <use xlink:href="#m30c4adffa3" x="54" y="62.500159" style="stroke: #000000; stroke-width: 0.8"/>
      </g>
     </g>
     <g id="text_15">
      <!-- 0.8 -->
      <g transform="translate(31.096875 66.299378)scale(0.1 -0.1)">
       <use xlink:href="#DejaVuSans-30"/>
       <use xlink:href="#DejaVuSans-2e" x="63.623047"/>
       <use xlink:href="#DejaVuSans-38" x="95.410156"/>
      </g>
     </g>
    </g>
    <g id="ytick_9">
     <g id="line2d_15">
      <g>
       <use xlink:href="#m30c4adffa3" x="54" y="36.851694" style="stroke: #000000; stroke-width: 0.8"/>
      </g>
     </g>
     <g id="text_16">
      <!-- 0.9 -->
      <g transform="translate(31.096875 40.650912)scale(0.1 -0.1)">
       <defs>
        <path id="DejaVuSans-39" d="M 703 97 
L 703 672 
Q 941 559 1184 500 
Q 1428 441 1663 441 
Q 2288 441 2617 861 
Q 2947 1281 2994 2138 
Q 2813 1869 2534 1725 
Q 2256 1581 1919 1581 
Q 1219 1581 811 2004 
Q 403 2428 403 3163 
Q 403 3881 828 4315 
Q 1253 4750 1959 4750 
Q 2769 4750 3195 4129 
Q 3622 3509 3622 2328 
Q 3622 1225 3098 567 
Q 2575 -91 1691 -91 
Q 1453 -91 1209 -44 
Q 966 3 703 97 
z
M 1959 2075 
Q 2384 2075 2632 2365 
Q 2881 2656 2881 3163 
Q 2881 3666 2632 3958 
Q 2384 4250 1959 4250 
Q 1534 4250 1286 3958 
Q 1038 3666 1038 3163 
Q 1038 2656 1286 2365 
Q 1534 2075 1959 2075 
z
" transform="scale(0.015625)"/>
       </defs>
       <use xlink:href="#DejaVuSans-30"/>
       <use xlink:href="#DejaVuSans-2e" x="63.623047"/>
       <use xlink:href="#DejaVuSans-39" x="95.410156"/>
      </g>
     </g>
    </g>
    <g id="text_17">
     <!-- Accuracy -->
     <g transform="translate(25.017187 166.108125)rotate(-90)scale(0.1 -0.1)">
      <defs>
       <path id="DejaVuSans-41" d="M 2188 4044 
L 1331 1722 
L 3047 1722 
L 2188 4044 
z
M 1831 4666 
L 2547 4666 
L 4325 0 
L 3669 0 
L 3244 1197 
L 1141 1197 
L 716 0 
L 50 0 
L 1831 4666 
z
" transform="scale(0.015625)"/>
       <path id="DejaVuSans-75" d="M 544 1381 
L 544 3500 
L 1119 3500 
L 1119 1403 
Q 1119 906 1312 657 
Q 1506 409 1894 409 
Q 2359 409 2629 706 
Q 2900 1003 2900 1516 
L 2900 3500 
L 3475 3500 
L 3475 0 
L 2900 0 
L 2900 538 
Q 2691 219 2414 64 
Q 2138 -91 1772 -91 
Q 1169 -91 856 284 
Q 544 659 544 1381 
z
M 1991 3584 
L 1991 3584 
z
" transform="scale(0.015625)"/>
       <path id="DejaVuSans-72" d="M 2631 2963 
Q 2534 3019 2420 3045 
Q 2306 3072 2169 3072 
Q 1681 3072 1420 2755 
Q 1159 2438 1159 1844 
L 1159 0 
L 581 0 
L 581 3500 
L 1159 3500 
L 1159 2956 
Q 1341 3275 1631 3429 
Q 1922 3584 2338 3584 
Q 2397 3584 2469 3576 
Q 2541 3569 2628 3553 
L 2631 2963 
z
" transform="scale(0.015625)"/>
       <path id="DejaVuSans-61" d="M 2194 1759 
Q 1497 1759 1228 1600 
Q 959 1441 959 1056 
Q 959 750 1161 570 
Q 1363 391 1709 391 
Q 2188 391 2477 730 
Q 2766 1069 2766 1631 
L 2766 1759 
L 2194 1759 
z
M 3341 1997 
L 3341 0 
L 2766 0 
L 2766 531 
Q 2569 213 2275 61 
Q 1981 -91 1556 -91 
Q 1019 -91 701 211 
Q 384 513 384 1019 
Q 384 1609 779 1909 
Q 1175 2209 1959 2209 
L 2766 2209 
L 2766 2266 
Q 2766 2663 2505 2880 
Q 2244 3097 1772 3097 
Q 1472 3097 1187 3025 
Q 903 2953 641 2809 
L 641 3341 
Q 956 3463 1253 3523 
Q 1550 3584 1831 3584 
Q 2591 3584 2966 3190 
Q 3341 2797 3341 1997 
z
" transform="scale(0.015625)"/>
       <path id="DejaVuSans-79" d="M 2059 -325 
Q 1816 -950 1584 -1140 
Q 1353 -1331 966 -1331 
L 506 -1331 
L 506 -850 
L 844 -850 
Q 1081 -850 1212 -737 
Q 1344 -625 1503 -206 
L 1606 56 
L 191 3500 
L 800 3500 
L 1894 763 
L 2988 3500 
L 3597 3500 
L 2059 -325 
z
" transform="scale(0.015625)"/>
      </defs>
      <use xlink:href="#DejaVuSans-41"/>
      <use xlink:href="#DejaVuSans-63" x="66.658203"/>
      <use xlink:href="#DejaVuSans-63" x="121.638672"/>
      <use xlink:href="#DejaVuSans-75" x="176.619141"/>
      <use xlink:href="#DejaVuSans-72" x="239.998047"/>
      <use xlink:href="#DejaVuSans-61" x="281.111328"/>
      <use xlink:href="#DejaVuSans-63" x="342.390625"/>
      <use xlink:href="#DejaVuSans-79" x="397.371094"/>
     </g>
    </g>
   </g>
   <g id="line2d_16">
    <path d="M 69.218182 238.901755 
L 72.292562 238.867557 
L 75.366942 238.867557 
L 78.441322 238.867557 
L 81.515702 238.867557 
L 84.590083 238.867557 
L 87.664463 238.867557 
L 90.738843 238.867557 
L 93.813223 238.867557 
L 96.887603 238.867557 
L 99.961983 238.867557 
L 103.036364 238.867557 
L 106.110744 238.867557 
L 109.185124 238.867557 
L 112.259504 238.867557 
L 115.333884 238.867557 
L 118.408264 238.867557 
L 121.482645 238.867557 
L 124.557025 238.867557 
L 127.631405 238.867557 
L 130.705785 238.867557 
L 133.780165 238.867557 
L 136.854545 238.867557 
L 139.928926 238.867557 
L 143.003306 238.867557 
L 146.077686 238.867557 
L 149.152066 238.867557 
L 152.226446 238.867557 
L 155.300826 238.867557 
L 158.375207 238.867557 
L 161.449587 238.867557 
L 164.523967 238.867557 
L 167.598347 238.867557 
L 170.672727 238.867557 
L 173.747107 238.867557 
L 176.821488 238.867557 
L 179.895868 238.867557 
L 182.970248 238.867557 
L 186.044628 238.867557 
L 189.119008 238.867557 
L 192.193388 238.867557 
L 195.267769 238.867557 
L 198.342149 238.867557 
L 201.416529 238.867557 
L 204.490909 238.867557 
L 207.565289 238.867557 
L 210.639669 238.867557 
L 213.71405 238.867557 
L 216.78843 238.867557 
L 219.86281 238.867557 
L 222.93719 238.867557 
L 226.01157 238.867557 
L 229.08595 238.867557 
L 232.160331 238.867557 
L 235.234711 238.867557 
L 238.309091 238.867557 
L 241.383471 238.867557 
L 244.457851 238.867557 
L 247.532231 238.867557 
L 250.606612 238.867557 
L 253.680992 238.867557 
L 256.755372 238.867557 
L 259.829752 238.867557 
L 262.904132 238.867557 
L 265.978512 238.867557 
L 269.052893 238.867557 
L 272.127273 238.867557 
L 275.201653 238.867557 
L 278.276033 238.867557 
L 281.350413 238.867557 
L 284.424793 238.867557 
L 287.499174 238.867557 
L 290.573554 238.867557 
L 293.647934 238.867557 
L 296.722314 238.867557 
L 299.796694 238.867557 
L 302.871074 238.867557 
L 305.945455 238.867557 
L 309.019835 238.867557 
L 312.094215 238.867557 
L 315.168595 238.867557 
L 318.242975 238.867557 
L 321.317355 238.867557 
L 324.391736 238.867557 
L 327.466116 238.867557 
L 330.540496 238.867557 
L 333.614876 238.867557 
L 336.689256 238.867557 
L 339.763636 238.867557 
L 342.838017 238.867557 
L 345.912397 238.867557 
L 348.986777 238.867557 
L 352.061157 238.867557 
L 355.135537 238.867557 
L 358.209917 238.867557 
L 361.284298 238.867557 
L 364.358678 238.867557 
L 367.433058 238.867557 
L 370.507438 238.867557 
L 373.581818 238.867557 
" clip-path="url(#p4ec2cbc20d)" style="fill: none; stroke: #1f77b4; stroke-width: 1.5; stroke-linecap: square"/>
   </g>
   <g id="line2d_17">
    <path d="M 69.218182 238.576875 
L 72.292562 238.576875 
L 75.366942 238.576875 
L 78.441322 238.576875 
L 81.515702 238.576875 
L 84.590083 238.576875 
L 87.664463 238.576875 
L 90.738843 238.576875 
L 93.813223 238.576875 
L 96.887603 238.576875 
L 99.961983 238.576875 
L 103.036364 238.576875 
L 106.110744 238.576875 
L 109.185124 238.576875 
L 112.259504 238.576875 
L 115.333884 238.576875 
L 118.408264 238.576875 
L 121.482645 238.576875 
L 124.557025 238.576875 
L 127.631405 238.576875 
L 130.705785 238.576875 
L 133.780165 238.576875 
L 136.854545 238.576875 
L 139.928926 238.576875 
L 143.003306 238.576875 
L 146.077686 238.576875 
L 149.152066 238.576875 
L 152.226446 238.576875 
L 155.300826 238.576875 
L 158.375207 238.576875 
L 161.449587 238.576875 
L 164.523967 238.576875 
L 167.598347 238.576875 
L 170.672727 238.576875 
L 173.747107 238.576875 
L 176.821488 238.576875 
L 179.895868 238.576875 
L 182.970248 238.576875 
L 186.044628 238.576875 
L 189.119008 238.576875 
L 192.193388 238.576875 
L 195.267769 238.576875 
L 198.342149 238.576875 
L 201.416529 238.576875 
L 204.490909 238.576875 
L 207.565289 238.576875 
L 210.639669 238.576875 
L 213.71405 238.576875 
L 216.78843 238.576875 
L 219.86281 238.576875 
L 222.93719 238.576875 
L 226.01157 238.576875 
L 229.08595 238.576875 
L 232.160331 238.576875 
L 235.234711 238.576875 
L 238.309091 238.576875 
L 241.383471 238.576875 
L 244.457851 238.576875 
L 247.532231 238.576875 
L 250.606612 238.576875 
L 253.680992 238.576875 
L 256.755372 238.576875 
L 259.829752 238.576875 
L 262.904132 238.576875 
L 265.978512 238.576875 
L 269.052893 238.576875 
L 272.127273 238.576875 
L 275.201653 238.576875 
L 278.276033 238.576875 
L 281.350413 238.576875 
L 284.424793 238.576875 
L 287.499174 238.576875 
L 290.573554 238.576875 
L 293.647934 238.576875 
L 296.722314 238.576875 
L 299.796694 238.576875 
L 302.871074 238.576875 
L 305.945455 238.576875 
L 309.019835 238.576875 
L 312.094215 238.576875 
L 315.168595 238.576875 
L 318.242975 238.576875 
L 321.317355 238.576875 
L 324.391736 238.576875 
L 327.466116 238.576875 
L 330.540496 238.576875 
L 333.614876 238.576875 
L 336.689256 238.576875 
L 339.763636 238.576875 
L 342.838017 238.576875 
L 345.912397 238.576875 
L 348.986777 238.576875 
L 352.061157 238.576875 
L 355.135537 238.576875 
L 358.209917 238.576875 
L 361.284298 238.576875 
L 364.358678 238.576875 
L 367.433058 238.576875 
L 370.507438 238.576875 
L 373.581818 238.576875 
" clip-path="url(#p4ec2cbc20d)" style="fill: none; stroke: #ff7f0e; stroke-width: 1.5; stroke-linecap: square"/>
   </g>
   <g id="line2d_18">
    <path d="M 69.218182 239.051372 
L 72.292562 238.867557 
L 75.366942 238.867557 
L 78.441322 234.708233 
L 81.515702 222.478187 
L 84.590083 215.189749 
L 87.664463 215.121352 
L 90.738843 215.480432 
L 93.813223 205.357839 
L 96.887603 188.053671 
L 99.961983 177.482228 
L 103.036364 167.098876 
L 106.110744 200.399135 
L 109.185124 241.889802 
L 112.259504 241.41958 
L 115.333884 228.206345 
L 118.408264 204.195108 
L 121.482645 193.739082 
L 124.557025 173.835872 
L 127.631405 156.283769 
L 130.705785 149.384334 
L 133.780165 142.215591 
L 136.854545 137.278267 
L 139.928926 131.447502 
L 143.003306 127.519012 
L 146.077686 124.1035 
L 149.152066 119.615023 
L 152.226446 114.981191 
L 155.300826 111.907649 
L 158.375207 107.650001 
L 161.449587 105.982864 
L 164.523967 102.669933 
L 167.598347 99.891352 
L 170.672727 97.937786 
L 173.747107 96.492932 
L 176.821488 94.808673 
L 179.895868 93.000462 
L 182.970248 91.260633 
L 186.044628 89.939747 
L 189.119008 88.982203 
L 192.193388 87.960543 
L 195.267769 86.61827 
L 198.342149 85.759041 
L 201.416529 85.669272 
L 204.490909 84.720274 
L 207.565289 84.374024 
L 210.639669 82.805187 
L 213.71405 82.728244 
L 216.78843 82.313597 
L 219.86281 81.582616 
L 222.93719 80.231797 
L 226.01157 79.928291 
L 229.08595 79.693182 
L 232.160331 78.859606 
L 235.234711 77.666953 
L 238.309091 76.700864 
L 241.383471 76.41873 
L 244.457851 76.662385 
L 247.532231 74.09326 
L 250.606612 74.529295 
L 253.680992 73.161369 
L 256.755372 71.575441 
L 259.829752 71.541242 
L 262.904132 70.69912 
L 265.978512 68.878083 
L 269.052893 67.813663 
L 272.127273 67.886341 
L 275.201653 64.906834 
L 278.276033 65.35996 
L 281.350413 64.505012 
L 284.424793 62.316352 
L 287.499174 61.884598 
L 290.573554 61.563984 
L 293.647934 60.828739 
L 296.722314 59.217158 
L 299.796694 59.52921 
L 302.871074 59.272729 
L 305.945455 58.627237 
L 309.019835 57.272153 
L 312.094215 56.318874 
L 315.168595 56.51552 
L 318.242975 55.814457 
L 321.317355 54.502117 
L 324.391736 54.604713 
L 327.466116 54.091735 
L 330.540496 53.31373 
L 333.614876 52.544286 
L 336.689256 52.099705 
L 339.763636 52.180928 
L 342.838017 51.843224 
L 345.912397 50.958342 
L 348.986777 51.018193 
L 352.061157 49.509208 
L 355.135537 49.646002 
L 358.209917 48.226786 
L 361.284298 47.97885 
L 364.358678 48.111364 
L 367.433058 46.922992 
L 370.507438 45.191724 
L 373.581818 45.473858 
" clip-path="url(#p4ec2cbc20d)" style="fill: none; stroke: #2ca02c; stroke-width: 1.5; stroke-linecap: square"/>
   </g>
   <g id="line2d_19">
    <path d="M 69.218182 238.576875 
L 72.292562 238.576875 
L 75.366942 238.576875 
L 78.441322 234.037096 
L 81.515702 218.571073 
L 84.590083 214.441669 
L 87.664463 215.288068 
L 90.738843 211.953768 
L 93.813223 196.436447 
L 96.887603 180.021427 
L 99.961983 173.583664 
L 103.036364 186.305304 
L 106.110744 242.116364 
L 109.185124 241.808581 
L 112.259504 234.190986 
L 115.333884 214.390371 
L 118.408264 197.84711 
L 121.482645 189.588302 
L 124.557025 159.348765 
L 127.631405 152.474975 
L 130.705785 144.857385 
L 133.780165 138.983883 
L 136.854545 134.136329 
L 139.928926 127.749856 
L 143.003306 129.288759 
L 146.077686 121.850708 
L 149.152066 115.618137 
L 152.226446 111.873451 
L 155.300826 108.333971 
L 158.375207 106.025609 
L 161.449587 101.203692 
L 164.523967 99.254406 
L 167.598347 98.202828 
L 170.672727 96.279195 
L 173.747107 96.356138 
L 176.821488 93.663045 
L 179.895868 91.32903 
L 182.970248 89.09761 
L 186.044628 87.379168 
L 189.119008 85.968498 
L 192.193388 86.301937 
L 195.267769 85.635074 
L 198.342149 85.583783 
L 201.416529 84.173113 
L 204.490909 82.865038 
L 207.565289 82.941981 
L 210.639669 82.531614 
L 213.71405 80.941405 
L 216.78843 80.120656 
L 219.86281 80.813157 
L 222.93719 79.197311 
L 226.01157 79.376849 
L 229.08595 77.324968 
L 232.160331 77.453216 
L 235.234711 75.657816 
L 238.309091 75.863007 
L 241.383471 75.683469 
L 244.457851 74.914009 
L 247.532231 76.606814 
L 250.606612 73.708545 
L 253.680992 71.836203 
L 256.755372 69.220053 
L 259.829752 69.066167 
L 262.904132 69.656088 
L 265.978512 66.91169 
L 269.052893 67.450306 
L 272.127273 68.886629 
L 275.201653 65.321497 
L 278.276033 63.577402 
L 281.350413 62.34627 
L 284.424793 62.089789 
L 287.499174 62.577099 
L 290.573554 60.448275 
L 293.647934 59.704483 
L 296.722314 60.576523 
L 299.796694 59.884022 
L 302.871074 58.062969 
L 305.945455 58.755485 
L 309.019835 55.498125 
L 312.094215 56.318874 
L 315.168595 56.601008 
L 318.242975 54.497837 
L 321.317355 54.343951 
L 324.391736 54.651723 
L 327.466116 52.215127 
L 330.540496 52.779395 
L 333.614876 53.574492 
L 336.689256 54.779971 
L 339.763636 52.958933 
L 342.838017 51.420015 
L 345.912397 50.932705 
L 348.986777 49.752878 
L 352.061157 50.650571 
L 355.135537 47.72665 
L 358.209917 48.21396 
L 361.284298 48.008768 
L 364.358678 46.95719 
L 367.433058 47.239324 
L 370.507438 45.879959 
L 373.581818 44.443636 
" clip-path="url(#p4ec2cbc20d)" style="fill: none; stroke: #d62728; stroke-width: 1.5; stroke-linecap: square"/>
   </g>
   <g id="patch_3">
    <path d="M 54 252 
L 54 34.56 
" style="fill: none; stroke: #000000; stroke-width: 0.8; stroke-linejoin: miter; stroke-linecap: square"/>
   </g>
   <g id="patch_4">
    <path d="M 388.8 252 
L 388.8 34.56 
" style="fill: none; stroke: #000000; stroke-width: 0.8; stroke-linejoin: miter; stroke-linecap: square"/>
   </g>
   <g id="patch_5">
    <path d="M 54 252 
L 388.8 252 
" style="fill: none; stroke: #000000; stroke-width: 0.8; stroke-linejoin: miter; stroke-linecap: square"/>
   </g>
   <g id="patch_6">
    <path d="M 54 34.56 
L 388.8 34.56 
" style="fill: none; stroke: #000000; stroke-width: 0.8; stroke-linejoin: miter; stroke-linecap: square"/>
   </g>
   <g id="text_18">
    <!-- Accuracy -->
    <g transform="translate(194.00625 28.56)scale(0.12 -0.12)">
     <use xlink:href="#DejaVuSans-41"/>
     <use xlink:href="#DejaVuSans-63" x="66.658203"/>
     <use xlink:href="#DejaVuSans-63" x="121.638672"/>
     <use xlink:href="#DejaVuSans-75" x="176.619141"/>
     <use xlink:href="#DejaVuSans-72" x="239.998047"/>
     <use xlink:href="#DejaVuSans-61" x="281.111328"/>
     <use xlink:href="#DejaVuSans-63" x="342.390625"/>
     <use xlink:href="#DejaVuSans-79" x="397.371094"/>
    </g>
   </g>
   <g id="legend_1">
    <g id="patch_7">
     <path d="M 61 102.385 
L 178.442187 102.385 
Q 180.442187 102.385 180.442187 100.385 
L 180.442187 41.56 
Q 180.442187 39.56 178.442187 39.56 
L 61 39.56 
Q 59 39.56 59 41.56 
L 59 100.385 
Q 59 102.385 61 102.385 
z
" style="fill: #ffffff; opacity: 0.8; stroke: #cccccc; stroke-linejoin: miter"/>
    </g>
    <g id="line2d_20">
     <path d="M 63 47.658437 
L 73 47.658437 
L 83 47.658437 
" style="fill: none; stroke: #1f77b4; stroke-width: 1.5; stroke-linecap: square"/>
    </g>
    <g id="text_19">
     <!-- noLBE_train -->
     <g transform="translate(91 51.158437)scale(0.1 -0.1)">
      <defs>
       <path id="DejaVuSans-6e" d="M 3513 2113 
L 3513 0 
L 2938 0 
L 2938 2094 
Q 2938 2591 2744 2837 
Q 2550 3084 2163 3084 
Q 1697 3084 1428 2787 
Q 1159 2491 1159 1978 
L 1159 0 
L 581 0 
L 581 3500 
L 1159 3500 
L 1159 2956 
Q 1366 3272 1645 3428 
Q 1925 3584 2291 3584 
Q 2894 3584 3203 3211 
Q 3513 2838 3513 2113 
z
" transform="scale(0.015625)"/>
       <path id="DejaVuSans-4c" d="M 628 4666 
L 1259 4666 
L 1259 531 
L 3531 531 
L 3531 0 
L 628 0 
L 628 4666 
z
" transform="scale(0.015625)"/>
       <path id="DejaVuSans-42" d="M 1259 2228 
L 1259 519 
L 2272 519 
Q 2781 519 3026 730 
Q 3272 941 3272 1375 
Q 3272 1813 3026 2020 
Q 2781 2228 2272 2228 
L 1259 2228 
z
M 1259 4147 
L 1259 2741 
L 2194 2741 
Q 2656 2741 2882 2914 
Q 3109 3088 3109 3444 
Q 3109 3797 2882 3972 
Q 2656 4147 2194 4147 
L 1259 4147 
z
M 628 4666 
L 2241 4666 
Q 2963 4666 3353 4366 
Q 3744 4066 3744 3513 
Q 3744 3084 3544 2831 
Q 3344 2578 2956 2516 
Q 3422 2416 3680 2098 
Q 3938 1781 3938 1306 
Q 3938 681 3513 340 
Q 3088 0 2303 0 
L 628 0 
L 628 4666 
z
" transform="scale(0.015625)"/>
       <path id="DejaVuSans-5f" d="M 3263 -1063 
L 3263 -1509 
L -63 -1509 
L -63 -1063 
L 3263 -1063 
z
" transform="scale(0.015625)"/>
       <path id="DejaVuSans-74" d="M 1172 4494 
L 1172 3500 
L 2356 3500 
L 2356 3053 
L 1172 3053 
L 1172 1153 
Q 1172 725 1289 603 
Q 1406 481 1766 481 
L 2356 481 
L 2356 0 
L 1766 0 
Q 1100 0 847 248 
Q 594 497 594 1153 
L 594 3053 
L 172 3053 
L 172 3500 
L 594 3500 
L 594 4494 
L 1172 4494 
z
" transform="scale(0.015625)"/>
       <path id="DejaVuSans-69" d="M 603 3500 
L 1178 3500 
L 1178 0 
L 603 0 
L 603 3500 
z
M 603 4863 
L 1178 4863 
L 1178 4134 
L 603 4134 
L 603 4863 
z
" transform="scale(0.015625)"/>
      </defs>
      <use xlink:href="#DejaVuSans-6e"/>
      <use xlink:href="#DejaVuSans-6f" x="63.378906"/>
      <use xlink:href="#DejaVuSans-4c" x="124.560547"/>
      <use xlink:href="#DejaVuSans-42" x="180.273438"/>
      <use xlink:href="#DejaVuSans-45" x="248.876953"/>
      <use xlink:href="#DejaVuSans-5f" x="312.060547"/>
      <use xlink:href="#DejaVuSans-74" x="362.060547"/>
      <use xlink:href="#DejaVuSans-72" x="401.269531"/>
      <use xlink:href="#DejaVuSans-61" x="442.382812"/>
      <use xlink:href="#DejaVuSans-69" x="503.662109"/>
      <use xlink:href="#DejaVuSans-6e" x="531.445312"/>
     </g>
    </g>
    <g id="line2d_21">
     <path d="M 63 62.614688 
L 73 62.614688 
L 83 62.614688 
" style="fill: none; stroke: #ff7f0e; stroke-width: 1.5; stroke-linecap: square"/>
    </g>
    <g id="text_20">
     <!-- noLBE_validation -->
     <g transform="translate(91 66.114688)scale(0.1 -0.1)">
      <defs>
       <path id="DejaVuSans-76" d="M 191 3500 
L 800 3500 
L 1894 563 
L 2988 3500 
L 3597 3500 
L 2284 0 
L 1503 0 
L 191 3500 
z
" transform="scale(0.015625)"/>
       <path id="DejaVuSans-6c" d="M 603 4863 
L 1178 4863 
L 1178 0 
L 603 0 
L 603 4863 
z
" transform="scale(0.015625)"/>
       <path id="DejaVuSans-64" d="M 2906 2969 
L 2906 4863 
L 3481 4863 
L 3481 0 
L 2906 0 
L 2906 525 
Q 2725 213 2448 61 
Q 2172 -91 1784 -91 
Q 1150 -91 751 415 
Q 353 922 353 1747 
Q 353 2572 751 3078 
Q 1150 3584 1784 3584 
Q 2172 3584 2448 3432 
Q 2725 3281 2906 2969 
z
M 947 1747 
Q 947 1113 1208 752 
Q 1469 391 1925 391 
Q 2381 391 2643 752 
Q 2906 1113 2906 1747 
Q 2906 2381 2643 2742 
Q 2381 3103 1925 3103 
Q 1469 3103 1208 2742 
Q 947 2381 947 1747 
z
" transform="scale(0.015625)"/>
      </defs>
      <use xlink:href="#DejaVuSans-6e"/>
      <use xlink:href="#DejaVuSans-6f" x="63.378906"/>
      <use xlink:href="#DejaVuSans-4c" x="124.560547"/>
      <use xlink:href="#DejaVuSans-42" x="180.273438"/>
      <use xlink:href="#DejaVuSans-45" x="248.876953"/>
      <use xlink:href="#DejaVuSans-5f" x="312.060547"/>
      <use xlink:href="#DejaVuSans-76" x="362.060547"/>
      <use xlink:href="#DejaVuSans-61" x="421.240234"/>
      <use xlink:href="#DejaVuSans-6c" x="482.519531"/>
      <use xlink:href="#DejaVuSans-69" x="510.302734"/>
      <use xlink:href="#DejaVuSans-64" x="538.085938"/>
      <use xlink:href="#DejaVuSans-61" x="601.5625"/>
      <use xlink:href="#DejaVuSans-74" x="662.841797"/>
      <use xlink:href="#DejaVuSans-69" x="702.050781"/>
      <use xlink:href="#DejaVuSans-6f" x="729.833984"/>
      <use xlink:href="#DejaVuSans-6e" x="791.015625"/>
     </g>
    </g>
    <g id="line2d_22">
     <path d="M 63 77.570937 
L 73 77.570937 
L 83 77.570937 
" style="fill: none; stroke: #2ca02c; stroke-width: 1.5; stroke-linecap: square"/>
    </g>
    <g id="text_21">
     <!-- LBE_train -->
     <g transform="translate(91 81.070937)scale(0.1 -0.1)">
      <use xlink:href="#DejaVuSans-4c"/>
      <use xlink:href="#DejaVuSans-42" x="55.712891"/>
      <use xlink:href="#DejaVuSans-45" x="124.316406"/>
      <use xlink:href="#DejaVuSans-5f" x="187.5"/>
      <use xlink:href="#DejaVuSans-74" x="237.5"/>
      <use xlink:href="#DejaVuSans-72" x="276.708984"/>
      <use xlink:href="#DejaVuSans-61" x="317.822266"/>
      <use xlink:href="#DejaVuSans-69" x="379.101562"/>
      <use xlink:href="#DejaVuSans-6e" x="406.884766"/>
     </g>
    </g>
    <g id="line2d_23">
     <path d="M 63 92.527187 
L 73 92.527187 
L 83 92.527187 
" style="fill: none; stroke: #d62728; stroke-width: 1.5; stroke-linecap: square"/>
    </g>
    <g id="text_22">
     <!-- LBE_val -->
     <g transform="translate(91 96.027187)scale(0.1 -0.1)">
      <use xlink:href="#DejaVuSans-4c"/>
      <use xlink:href="#DejaVuSans-42" x="55.712891"/>
      <use xlink:href="#DejaVuSans-45" x="124.316406"/>
      <use xlink:href="#DejaVuSans-5f" x="187.5"/>
      <use xlink:href="#DejaVuSans-76" x="237.5"/>
      <use xlink:href="#DejaVuSans-61" x="296.679688"/>
      <use xlink:href="#DejaVuSans-6c" x="357.958984"/>
     </g>
    </g>
   </g>
  </g>
 </g>
 <defs>
  <clipPath id="p4ec2cbc20d">
   <rect x="54" y="34.56" width="334.8" height="217.44"/>
  </clipPath>
 </defs>
</svg>
