<?xml version="1.0" encoding="utf-8" standalone="no"?>
<!DOCTYPE svg PUBLIC "-//W3C//DTD SVG 1.1//EN"
  "http://www.w3.org/Graphics/SVG/1.1/DTD/svg11.dtd">
<svg xmlns:xlink="http://www.w3.org/1999/xlink" width="432pt" height="288pt" viewBox="0 0 432 288" xmlns="http://www.w3.org/2000/svg" version="1.1">
 <metadata>
  <rdf:RDF xmlns:dc="http://purl.org/dc/elements/1.1/" xmlns:cc="http://creativecommons.org/ns#" xmlns:rdf="http://www.w3.org/1999/02/22-rdf-syntax-ns#">
   <cc:Work>
    <dc:type rdf:resource="http://purl.org/dc/dcmitype/StillImage"/>
    <dc:date>2022-09-07T17:19:45.572684</dc:date>
    <dc:format>image/svg+xml</dc:format>
    <dc:creator>
     <cc:Agent>
      <dc:title>Matplotlib v3.5.1, https://matplotlib.org/</dc:title>
     </cc:Agent>
    </dc:creator>
   </cc:Work>
  </rdf:RDF>
 </metadata>
 <defs>
  <style type="text/css">*{stroke-linejoin: round; stroke-linecap: butt}</style>
 </defs>
 <g id="figure_1">
  <g id="patch_1">
   <path d="M 0 288 
L 432 288 
L 432 0 
L 0 0 
L 0 288 
z
" style="fill: none"/>
  </g>
  <g id="axes_1">
   <g id="patch_2">
    <path d="M 54 252 
L 388.8 252 
L 388.8 34.56 
L 54 34.56 
z
" style="fill: #ffffff"/>
   </g>
   <g id="matplotlib.axis_1">
    <g id="xtick_1">
     <g id="line2d_1">
      <defs>
       <path id="m015a91e76b" d="M 0 0 
L 0 3.5 
" style="stroke: #000000; stroke-width: 0.8"/>
      </defs>
      <g>
       <use xlink:href="#m015a91e76b" x="69.218182" y="252" style="stroke: #000000; stroke-width: 0.8"/>
      </g>
     </g>
     <g id="text_1">
      <!-- 0 -->
      <g transform="translate(66.036932 266.598437)scale(0.1 -0.1)">
       <defs>
        <path id="DejaVuSans-30" d="M 2034 4250 
Q 1547 4250 1301 3770 
Q 1056 3291 1056 2328 
Q 1056 1369 1301 889 
Q 1547 409 2034 409 
Q 2525 409 2770 889 
Q 3016 1369 3016 2328 
Q 3016 3291 2770 3770 
Q 2525 4250 2034 4250 
z
M 2034 4750 
Q 2819 4750 3233 4129 
Q 3647 3509 3647 2328 
Q 3647 1150 3233 529 
Q 2819 -91 2034 -91 
Q 1250 -91 836 529 
Q 422 1150 422 2328 
Q 422 3509 836 4129 
Q 1250 4750 2034 4750 
z
" transform="scale(0.015625)"/>
       </defs>
       <use xlink:href="#DejaVuSans-30"/>
      </g>
     </g>
    </g>
    <g id="xtick_2">
     <g id="line2d_2">
      <g>
       <use xlink:href="#m015a91e76b" x="130.705785" y="252" style="stroke: #000000; stroke-width: 0.8"/>
      </g>
     </g>
     <g id="text_2">
      <!-- 20 -->
      <g transform="translate(124.343285 266.598437)scale(0.1 -0.1)">
       <defs>
        <path id="DejaVuSans-32" d="M 1228 531 
L 3431 531 
L 3431 0 
L 469 0 
L 469 531 
Q 828 903 1448 1529 
Q 2069 2156 2228 2338 
Q 2531 2678 2651 2914 
Q 2772 3150 2772 3378 
Q 2772 3750 2511 3984 
Q 2250 4219 1831 4219 
Q 1534 4219 1204 4116 
Q 875 4013 500 3803 
L 500 4441 
Q 881 4594 1212 4672 
Q 1544 4750 1819 4750 
Q 2544 4750 2975 4387 
Q 3406 4025 3406 3419 
Q 3406 3131 3298 2873 
Q 3191 2616 2906 2266 
Q 2828 2175 2409 1742 
Q 1991 1309 1228 531 
z
" transform="scale(0.015625)"/>
       </defs>
       <use xlink:href="#DejaVuSans-32"/>
       <use xlink:href="#DejaVuSans-30" x="63.623047"/>
      </g>
     </g>
    </g>
    <g id="xtick_3">
     <g id="line2d_3">
      <g>
       <use xlink:href="#m015a91e76b" x="192.193388" y="252" style="stroke: #000000; stroke-width: 0.8"/>
      </g>
     </g>
     <g id="text_3">
      <!-- 40 -->
      <g transform="translate(185.830888 266.598437)scale(0.1 -0.1)">
       <defs>
        <path id="DejaVuSans-34" d="M 2419 4116 
L 825 1625 
L 2419 1625 
L 2419 4116 
z
M 2253 4666 
L 3047 4666 
L 3047 1625 
L 3713 1625 
L 3713 1100 
L 3047 1100 
L 3047 0 
L 2419 0 
L 2419 1100 
L 313 1100 
L 313 1709 
L 2253 4666 
z
" transform="scale(0.015625)"/>
       </defs>
       <use xlink:href="#DejaVuSans-34"/>
       <use xlink:href="#DejaVuSans-30" x="63.623047"/>
      </g>
     </g>
    </g>
    <g id="xtick_4">
     <g id="line2d_4">
      <g>
       <use xlink:href="#m015a91e76b" x="253.680992" y="252" style="stroke: #000000; stroke-width: 0.8"/>
      </g>
     </g>
     <g id="text_4">
      <!-- 60 -->
      <g transform="translate(247.318492 266.598437)scale(0.1 -0.1)">
       <defs>
        <path id="DejaVuSans-36" d="M 2113 2584 
Q 1688 2584 1439 2293 
Q 1191 2003 1191 1497 
Q 1191 994 1439 701 
Q 1688 409 2113 409 
Q 2538 409 2786 701 
Q 3034 994 3034 1497 
Q 3034 2003 2786 2293 
Q 2538 2584 2113 2584 
z
M 3366 4563 
L 3366 3988 
Q 3128 4100 2886 4159 
Q 2644 4219 2406 4219 
Q 1781 4219 1451 3797 
Q 1122 3375 1075 2522 
Q 1259 2794 1537 2939 
Q 1816 3084 2150 3084 
Q 2853 3084 3261 2657 
Q 3669 2231 3669 1497 
Q 3669 778 3244 343 
Q 2819 -91 2113 -91 
Q 1303 -91 875 529 
Q 447 1150 447 2328 
Q 447 3434 972 4092 
Q 1497 4750 2381 4750 
Q 2619 4750 2861 4703 
Q 3103 4656 3366 4563 
z
" transform="scale(0.015625)"/>
       </defs>
       <use xlink:href="#DejaVuSans-36"/>
       <use xlink:href="#DejaVuSans-30" x="63.623047"/>
      </g>
     </g>
    </g>
    <g id="xtick_5">
     <g id="line2d_5">
      <g>
       <use xlink:href="#m015a91e76b" x="315.168595" y="252" style="stroke: #000000; stroke-width: 0.8"/>
      </g>
     </g>
     <g id="text_5">
      <!-- 80 -->
      <g transform="translate(308.806095 266.598437)scale(0.1 -0.1)">
       <defs>
        <path id="DejaVuSans-38" d="M 2034 2216 
Q 1584 2216 1326 1975 
Q 1069 1734 1069 1313 
Q 1069 891 1326 650 
Q 1584 409 2034 409 
Q 2484 409 2743 651 
Q 3003 894 3003 1313 
Q 3003 1734 2745 1975 
Q 2488 2216 2034 2216 
z
M 1403 2484 
Q 997 2584 770 2862 
Q 544 3141 544 3541 
Q 544 4100 942 4425 
Q 1341 4750 2034 4750 
Q 2731 4750 3128 4425 
Q 3525 4100 3525 3541 
Q 3525 3141 3298 2862 
Q 3072 2584 2669 2484 
Q 3125 2378 3379 2068 
Q 3634 1759 3634 1313 
Q 3634 634 3220 271 
Q 2806 -91 2034 -91 
Q 1263 -91 848 271 
Q 434 634 434 1313 
Q 434 1759 690 2068 
Q 947 2378 1403 2484 
z
M 1172 3481 
Q 1172 3119 1398 2916 
Q 1625 2713 2034 2713 
Q 2441 2713 2670 2916 
Q 2900 3119 2900 3481 
Q 2900 3844 2670 4047 
Q 2441 4250 2034 4250 
Q 1625 4250 1398 4047 
Q 1172 3844 1172 3481 
z
" transform="scale(0.015625)"/>
       </defs>
       <use xlink:href="#DejaVuSans-38"/>
       <use xlink:href="#DejaVuSans-30" x="63.623047"/>
      </g>
     </g>
    </g>
    <g id="xtick_6">
     <g id="line2d_6">
      <g>
       <use xlink:href="#m015a91e76b" x="376.656198" y="252" style="stroke: #000000; stroke-width: 0.8"/>
      </g>
     </g>
     <g id="text_6">
      <!-- 100 -->
      <g transform="translate(367.112448 266.598437)scale(0.1 -0.1)">
       <defs>
        <path id="DejaVuSans-31" d="M 794 531 
L 1825 531 
L 1825 4091 
L 703 3866 
L 703 4441 
L 1819 4666 
L 2450 4666 
L 2450 531 
L 3481 531 
L 3481 0 
L 794 0 
L 794 531 
z
" transform="scale(0.015625)"/>
       </defs>
       <use xlink:href="#DejaVuSans-31"/>
       <use xlink:href="#DejaVuSans-30" x="63.623047"/>
       <use xlink:href="#DejaVuSans-30" x="127.246094"/>
      </g>
     </g>
    </g>
    <g id="text_7">
     <!-- epoch -->
     <g transform="translate(206.171875 280.276563)scale(0.1 -0.1)">
      <defs>
       <path id="DejaVuSans-65" d="M 3597 1894 
L 3597 1613 
L 953 1613 
Q 991 1019 1311 708 
Q 1631 397 2203 397 
Q 2534 397 2845 478 
Q 3156 559 3463 722 
L 3463 178 
Q 3153 47 2828 -22 
Q 2503 -91 2169 -91 
Q 1331 -91 842 396 
Q 353 884 353 1716 
Q 353 2575 817 3079 
Q 1281 3584 2069 3584 
Q 2775 3584 3186 3129 
Q 3597 2675 3597 1894 
z
M 3022 2063 
Q 3016 2534 2758 2815 
Q 2500 3097 2075 3097 
Q 1594 3097 1305 2825 
Q 1016 2553 972 2059 
L 3022 2063 
z
" transform="scale(0.015625)"/>
       <path id="DejaVuSans-70" d="M 1159 525 
L 1159 -1331 
L 581 -1331 
L 581 3500 
L 1159 3500 
L 1159 2969 
Q 1341 3281 1617 3432 
Q 1894 3584 2278 3584 
Q 2916 3584 3314 3078 
Q 3713 2572 3713 1747 
Q 3713 922 3314 415 
Q 2916 -91 2278 -91 
Q 1894 -91 1617 61 
Q 1341 213 1159 525 
z
M 3116 1747 
Q 3116 2381 2855 2742 
Q 2594 3103 2138 3103 
Q 1681 3103 1420 2742 
Q 1159 2381 1159 1747 
Q 1159 1113 1420 752 
Q 1681 391 2138 391 
Q 2594 391 2855 752 
Q 3116 1113 3116 1747 
z
" transform="scale(0.015625)"/>
       <path id="DejaVuSans-6f" d="M 1959 3097 
Q 1497 3097 1228 2736 
Q 959 2375 959 1747 
Q 959 1119 1226 758 
Q 1494 397 1959 397 
Q 2419 397 2687 759 
Q 2956 1122 2956 1747 
Q 2956 2369 2687 2733 
Q 2419 3097 1959 3097 
z
M 1959 3584 
Q 2709 3584 3137 3096 
Q 3566 2609 3566 1747 
Q 3566 888 3137 398 
Q 2709 -91 1959 -91 
Q 1206 -91 779 398 
Q 353 888 353 1747 
Q 353 2609 779 3096 
Q 1206 3584 1959 3584 
z
" transform="scale(0.015625)"/>
       <path id="DejaVuSans-63" d="M 3122 3366 
L 3122 2828 
Q 2878 2963 2633 3030 
Q 2388 3097 2138 3097 
Q 1578 3097 1268 2742 
Q 959 2388 959 1747 
Q 959 1106 1268 751 
Q 1578 397 2138 397 
Q 2388 397 2633 464 
Q 2878 531 3122 666 
L 3122 134 
Q 2881 22 2623 -34 
Q 2366 -91 2075 -91 
Q 1284 -91 818 406 
Q 353 903 353 1747 
Q 353 2603 823 3093 
Q 1294 3584 2113 3584 
Q 2378 3584 2631 3529 
Q 2884 3475 3122 3366 
z
" transform="scale(0.015625)"/>
       <path id="DejaVuSans-68" d="M 3513 2113 
L 3513 0 
L 2938 0 
L 2938 2094 
Q 2938 2591 2744 2837 
Q 2550 3084 2163 3084 
Q 1697 3084 1428 2787 
Q 1159 2491 1159 1978 
L 1159 0 
L 581 0 
L 581 4863 
L 1159 4863 
L 1159 2956 
Q 1366 3272 1645 3428 
Q 1925 3584 2291 3584 
Q 2894 3584 3203 3211 
Q 3513 2838 3513 2113 
z
" transform="scale(0.015625)"/>
      </defs>
      <use xlink:href="#DejaVuSans-65"/>
      <use xlink:href="#DejaVuSans-70" x="61.523438"/>
      <use xlink:href="#DejaVuSans-6f" x="125"/>
      <use xlink:href="#DejaVuSans-63" x="186.181641"/>
      <use xlink:href="#DejaVuSans-68" x="241.162109"/>
     </g>
    </g>
   </g>
   <g id="matplotlib.axis_2">
    <g id="ytick_1">
     <g id="line2d_7">
      <defs>
       <path id="m9e77761503" d="M 0 0 
L -3.5 0 
" style="stroke: #000000; stroke-width: 0.8"/>
      </defs>
      <g>
       <use xlink:href="#m9e77761503" x="54" y="237.589438" style="stroke: #000000; stroke-width: 0.8"/>
      </g>
     </g>
     <g id="text_8">
      <!-- 0.50 -->
      <g transform="translate(24.734375 241.388657)scale(0.1 -0.1)">
       <defs>
        <path id="DejaVuSans-2e" d="M 684 794 
L 1344 794 
L 1344 0 
L 684 0 
L 684 794 
z
" transform="scale(0.015625)"/>
        <path id="DejaVuSans-35" d="M 691 4666 
L 3169 4666 
L 3169 4134 
L 1269 4134 
L 1269 2991 
Q 1406 3038 1543 3061 
Q 1681 3084 1819 3084 
Q 2600 3084 3056 2656 
Q 3513 2228 3513 1497 
Q 3513 744 3044 326 
Q 2575 -91 1722 -91 
Q 1428 -91 1123 -41 
Q 819 9 494 109 
L 494 744 
Q 775 591 1075 516 
Q 1375 441 1709 441 
Q 2250 441 2565 725 
Q 2881 1009 2881 1497 
Q 2881 1984 2565 2268 
Q 2250 2553 1709 2553 
Q 1456 2553 1204 2497 
Q 953 2441 691 2322 
L 691 4666 
z
" transform="scale(0.015625)"/>
       </defs>
       <use xlink:href="#DejaVuSans-30"/>
       <use xlink:href="#DejaVuSans-2e" x="63.623047"/>
       <use xlink:href="#DejaVuSans-35" x="95.410156"/>
       <use xlink:href="#DejaVuSans-30" x="159.033203"/>
      </g>
     </g>
    </g>
    <g id="ytick_2">
     <g id="line2d_8">
      <g>
       <use xlink:href="#m9e77761503" x="54" y="211.034275" style="stroke: #000000; stroke-width: 0.8"/>
      </g>
     </g>
     <g id="text_9">
      <!-- 0.75 -->
      <g transform="translate(24.734375 214.833494)scale(0.1 -0.1)">
       <defs>
        <path id="DejaVuSans-37" d="M 525 4666 
L 3525 4666 
L 3525 4397 
L 1831 0 
L 1172 0 
L 2766 4134 
L 525 4134 
L 525 4666 
z
" transform="scale(0.015625)"/>
       </defs>
       <use xlink:href="#DejaVuSans-30"/>
       <use xlink:href="#DejaVuSans-2e" x="63.623047"/>
       <use xlink:href="#DejaVuSans-37" x="95.410156"/>
       <use xlink:href="#DejaVuSans-35" x="159.033203"/>
      </g>
     </g>
    </g>
    <g id="ytick_3">
     <g id="line2d_9">
      <g>
       <use xlink:href="#m9e77761503" x="54" y="184.479112" style="stroke: #000000; stroke-width: 0.8"/>
      </g>
     </g>
     <g id="text_10">
      <!-- 1.00 -->
      <g transform="translate(24.734375 188.27833)scale(0.1 -0.1)">
       <use xlink:href="#DejaVuSans-31"/>
       <use xlink:href="#DejaVuSans-2e" x="63.623047"/>
       <use xlink:href="#DejaVuSans-30" x="95.410156"/>
       <use xlink:href="#DejaVuSans-30" x="159.033203"/>
      </g>
     </g>
    </g>
    <g id="ytick_4">
     <g id="line2d_10">
      <g>
       <use xlink:href="#m9e77761503" x="54" y="157.923948" style="stroke: #000000; stroke-width: 0.8"/>
      </g>
     </g>
     <g id="text_11">
      <!-- 1.25 -->
      <g transform="translate(24.734375 161.723167)scale(0.1 -0.1)">
       <use xlink:href="#DejaVuSans-31"/>
       <use xlink:href="#DejaVuSans-2e" x="63.623047"/>
       <use xlink:href="#DejaVuSans-32" x="95.410156"/>
       <use xlink:href="#DejaVuSans-35" x="159.033203"/>
      </g>
     </g>
    </g>
    <g id="ytick_5">
     <g id="line2d_11">
      <g>
       <use xlink:href="#m9e77761503" x="54" y="131.368785" style="stroke: #000000; stroke-width: 0.8"/>
      </g>
     </g>
     <g id="text_12">
      <!-- 1.50 -->
      <g transform="translate(24.734375 135.168003)scale(0.1 -0.1)">
       <use xlink:href="#DejaVuSans-31"/>
       <use xlink:href="#DejaVuSans-2e" x="63.623047"/>
       <use xlink:href="#DejaVuSans-35" x="95.410156"/>
       <use xlink:href="#DejaVuSans-30" x="159.033203"/>
      </g>
     </g>
    </g>
    <g id="ytick_6">
     <g id="line2d_12">
      <g>
       <use xlink:href="#m9e77761503" x="54" y="104.813621" style="stroke: #000000; stroke-width: 0.8"/>
      </g>
     </g>
     <g id="text_13">
      <!-- 1.75 -->
      <g transform="translate(24.734375 108.61284)scale(0.1 -0.1)">
       <use xlink:href="#DejaVuSans-31"/>
       <use xlink:href="#DejaVuSans-2e" x="63.623047"/>
       <use xlink:href="#DejaVuSans-37" x="95.410156"/>
       <use xlink:href="#DejaVuSans-35" x="159.033203"/>
      </g>
     </g>
    </g>
    <g id="ytick_7">
     <g id="line2d_13">
      <g>
       <use xlink:href="#m9e77761503" x="54" y="78.258458" style="stroke: #000000; stroke-width: 0.8"/>
      </g>
     </g>
     <g id="text_14">
      <!-- 2.00 -->
      <g transform="translate(24.734375 82.057677)scale(0.1 -0.1)">
       <use xlink:href="#DejaVuSans-32"/>
       <use xlink:href="#DejaVuSans-2e" x="63.623047"/>
       <use xlink:href="#DejaVuSans-30" x="95.410156"/>
       <use xlink:href="#DejaVuSans-30" x="159.033203"/>
      </g>
     </g>
    </g>
    <g id="ytick_8">
     <g id="line2d_14">
      <g>
       <use xlink:href="#m9e77761503" x="54" y="51.703294" style="stroke: #000000; stroke-width: 0.8"/>
      </g>
     </g>
     <g id="text_15">
      <!-- 2.25 -->
      <g transform="translate(24.734375 55.502513)scale(0.1 -0.1)">
       <use xlink:href="#DejaVuSans-32"/>
       <use xlink:href="#DejaVuSans-2e" x="63.623047"/>
       <use xlink:href="#DejaVuSans-32" x="95.410156"/>
       <use xlink:href="#DejaVuSans-35" x="159.033203"/>
      </g>
     </g>
    </g>
    <g id="text_16">
     <!-- CE loss -->
     <g transform="translate(18.654687 161.177656)rotate(-90)scale(0.1 -0.1)">
      <defs>
       <path id="DejaVuSans-43" d="M 4122 4306 
L 4122 3641 
Q 3803 3938 3442 4084 
Q 3081 4231 2675 4231 
Q 1875 4231 1450 3742 
Q 1025 3253 1025 2328 
Q 1025 1406 1450 917 
Q 1875 428 2675 428 
Q 3081 428 3442 575 
Q 3803 722 4122 1019 
L 4122 359 
Q 3791 134 3420 21 
Q 3050 -91 2638 -91 
Q 1578 -91 968 557 
Q 359 1206 359 2328 
Q 359 3453 968 4101 
Q 1578 4750 2638 4750 
Q 3056 4750 3426 4639 
Q 3797 4528 4122 4306 
z
" transform="scale(0.015625)"/>
       <path id="DejaVuSans-45" d="M 628 4666 
L 3578 4666 
L 3578 4134 
L 1259 4134 
L 1259 2753 
L 3481 2753 
L 3481 2222 
L 1259 2222 
L 1259 531 
L 3634 531 
L 3634 0 
L 628 0 
L 628 4666 
z
" transform="scale(0.015625)"/>
       <path id="DejaVuSans-20" transform="scale(0.015625)"/>
       <path id="DejaVuSans-6c" d="M 603 4863 
L 1178 4863 
L 1178 0 
L 603 0 
L 603 4863 
z
" transform="scale(0.015625)"/>
       <path id="DejaVuSans-73" d="M 2834 3397 
L 2834 2853 
Q 2591 2978 2328 3040 
Q 2066 3103 1784 3103 
Q 1356 3103 1142 2972 
Q 928 2841 928 2578 
Q 928 2378 1081 2264 
Q 1234 2150 1697 2047 
L 1894 2003 
Q 2506 1872 2764 1633 
Q 3022 1394 3022 966 
Q 3022 478 2636 193 
Q 2250 -91 1575 -91 
Q 1294 -91 989 -36 
Q 684 19 347 128 
L 347 722 
Q 666 556 975 473 
Q 1284 391 1588 391 
Q 1994 391 2212 530 
Q 2431 669 2431 922 
Q 2431 1156 2273 1281 
Q 2116 1406 1581 1522 
L 1381 1569 
Q 847 1681 609 1914 
Q 372 2147 372 2553 
Q 372 3047 722 3315 
Q 1072 3584 1716 3584 
Q 2034 3584 2315 3537 
Q 2597 3491 2834 3397 
z
" transform="scale(0.015625)"/>
      </defs>
      <use xlink:href="#DejaVuSans-43"/>
      <use xlink:href="#DejaVuSans-45" x="69.824219"/>
      <use xlink:href="#DejaVuSans-20" x="133.007812"/>
      <use xlink:href="#DejaVuSans-6c" x="164.794922"/>
      <use xlink:href="#DejaVuSans-6f" x="192.578125"/>
      <use xlink:href="#DejaVuSans-73" x="253.759766"/>
      <use xlink:href="#DejaVuSans-73" x="305.859375"/>
     </g>
    </g>
   </g>
   <g id="line2d_15">
    <path d="M 69.218182 46.155073 
L 72.292562 46.222691 
L 75.366942 46.251789 
L 78.441322 46.252245 
L 81.515702 46.263489 
L 84.590083 46.260982 
L 87.664463 46.260248 
L 90.738843 46.264755 
L 93.813223 46.256981 
L 96.887603 46.263565 
L 99.961983 46.266832 
L 103.036364 46.261438 
L 106.110744 46.2624 
L 109.185124 46.268301 
L 112.259504 46.267237 
L 115.333884 46.261919 
L 118.408264 46.269061 
L 121.482645 46.26316 
L 124.557025 46.265186 
L 127.631405 46.268858 
L 130.705785 46.262983 
L 133.780165 46.26858 
L 136.854545 46.266731 
L 139.928926 46.266427 
L 143.003306 46.258652 
L 146.077686 46.257107 
L 149.152066 46.26278 
L 152.226446 46.266781 
L 155.300826 46.261387 
L 158.375207 46.270099 
L 161.449587 46.263717 
L 164.523967 46.268377 
L 167.598347 46.268174 
L 170.672727 46.267491 
L 173.747107 46.26787 
L 176.821488 46.259488 
L 179.895868 46.259133 
L 182.970248 46.263287 
L 186.044628 46.260982 
L 189.119008 46.264907 
L 192.193388 46.265262 
L 195.267769 46.259311 
L 198.342149 46.268681 
L 201.416529 46.272024 
L 204.490909 46.268352 
L 207.565289 46.264122 
L 210.639669 46.266098 
L 213.71405 46.260577 
L 216.78843 46.266706 
L 219.86281 46.265059 
L 222.93719 46.265515 
L 226.01157 46.259741 
L 229.08595 46.273341 
L 232.160331 46.259311 
L 235.234711 46.270378 
L 238.309091 46.265794 
L 241.383471 46.271264 
L 244.457851 46.26397 
L 247.532231 46.259007 
L 250.606612 46.265743 
L 253.680992 46.272632 
L 256.755372 46.258703 
L 259.829752 46.259488 
L 262.904132 46.267541 
L 265.978512 46.267009 
L 269.052893 46.265642 
L 272.127273 46.262603 
L 275.201653 46.264781 
L 278.276033 46.25845 
L 281.350413 46.265794 
L 284.424793 46.2663 
L 287.499174 46.26663 
L 290.573554 46.268681 
L 293.647934 46.263287 
L 296.722314 46.269061 
L 299.796694 46.262502 
L 302.871074 46.268883 
L 305.945455 46.261767 
L 309.019835 46.26511 
L 312.094215 46.265313 
L 315.168595 46.272505 
L 318.242975 46.273113 
L 321.317355 46.259209 
L 324.391736 46.259235 
L 327.466116 46.273493 
L 330.540496 46.272859 
L 333.614876 46.265541 
L 336.689256 46.267491 
L 339.763636 46.269542 
L 342.838017 46.26159 
L 345.912397 46.264477 
L 348.986777 46.258298 
L 352.061157 46.269339 
L 355.135537 46.267009 
L 358.209917 46.262654 
L 361.284298 46.263793 
L 364.358678 46.269846 
L 367.433058 46.260703 
L 370.507438 46.263945 
L 373.581818 46.265465 
" clip-path="url(#p253b7a7f62)" style="fill: none; stroke: #1f77b4; stroke-width: 1.5; stroke-linecap: square"/>
   </g>
   <g id="line2d_16">
    <path d="M 69.218182 46.213878 
L 72.292562 46.274176 
L 75.366942 46.276911 
L 78.441322 46.273797 
L 81.515702 46.292258 
L 84.590083 46.289498 
L 87.664463 46.284002 
L 90.738843 46.2604 
L 93.813223 46.280761 
L 96.887603 46.29274 
L 99.961983 46.277848 
L 103.036364 46.274784 
L 106.110744 46.296336 
L 109.185124 46.28418 
L 112.259504 46.275139 
L 115.333884 46.289067 
L 118.408264 46.289371 
L 121.482645 46.285699 
L 124.557025 46.280229 
L 127.631405 46.265237 
L 130.705785 46.289397 
L 133.780165 46.292309 
L 136.854545 46.289346 
L 139.928926 46.276329 
L 143.003306 46.297323 
L 146.077686 46.279849 
L 149.152066 46.294107 
L 152.226446 46.268504 
L 155.300826 46.277595 
L 158.375207 46.275569 
L 161.449587 46.273771 
L 164.523967 46.292664 
L 167.598347 46.275392 
L 170.672727 46.285877 
L 173.747107 46.293398 
L 176.821488 46.276126 
L 179.895868 46.291245 
L 182.970248 46.279874 
L 186.044628 46.28808 
L 189.119008 46.279495 
L 192.193388 46.284939 
L 195.267769 46.280052 
L 198.342149 46.28651 
L 201.416529 46.278937 
L 204.490909 46.280153 
L 207.565289 46.287472 
L 210.639669 46.280178 
L 213.71405 46.277519 
L 216.78843 46.285902 
L 219.86281 46.288941 
L 222.93719 46.289498 
L 226.01157 46.296057 
L 229.08595 46.292512 
L 232.160331 46.280963 
L 235.234711 46.272454 
L 238.309091 46.294791 
L 241.383471 46.289473 
L 244.457851 46.295931 
L 247.532231 46.287219 
L 250.606612 46.295525 
L 253.680992 46.277114 
L 256.755372 46.280052 
L 259.829752 46.288029 
L 262.904132 46.293626 
L 265.978512 46.28228 
L 269.052893 46.28846 
L 272.127273 46.276506 
L 275.201653 46.272758 
L 278.276033 46.280229 
L 281.350413 46.295449 
L 284.424793 46.283901 
L 287.499174 46.291043 
L 290.573554 46.281267 
L 293.647934 46.271872 
L 296.722314 46.27134 
L 299.796694 46.27405 
L 302.871074 46.284002 
L 305.945455 46.290536 
L 309.019835 46.291524 
L 312.094215 46.301122 
L 315.168595 46.287447 
L 318.242975 46.296032 
L 321.317355 46.295601 
L 324.391736 46.294234 
L 327.466116 46.310214 
L 330.540496 46.297475 
L 333.614876 46.294588 
L 336.689256 46.285978 
L 339.763636 46.280026 
L 342.838017 46.278102 
L 345.912397 46.281976 
L 348.986777 46.28889 
L 352.061157 46.29626 
L 355.135537 46.285725 
L 358.209917 46.30016 
L 361.284298 46.289093 
L 364.358678 46.288966 
L 367.433058 46.296564 
L 370.507438 46.281166 
L 373.581818 46.288966 
" clip-path="url(#p253b7a7f62)" style="fill: none; stroke: #ff7f0e; stroke-width: 1.5; stroke-linecap: square"/>
   </g>
   <g id="line2d_17">
    <path d="M 69.218182 46.164266 
L 72.292562 46.229858 
L 75.366942 46.244977 
L 78.441322 52.278754 
L 81.515702 60.949975 
L 84.590083 68.242024 
L 87.664463 71.954438 
L 90.738843 74.12803 
L 93.813223 83.939572 
L 96.887603 102.926695 
L 99.961983 112.930378 
L 103.036364 125.731647 
L 106.110744 91.309723 
L 109.185124 45.65141 
L 112.259504 46.114249 
L 115.333884 58.055913 
L 118.408264 97.243264 
L 121.482645 109.339486 
L 124.557025 121.805883 
L 127.631405 136.571345 
L 130.705785 144.597768 
L 133.780165 151.148415 
L 136.854545 155.087855 
L 139.928926 160.624908 
L 143.003306 164.018049 
L 146.077686 167.510617 
L 149.152066 170.580207 
L 152.226446 174.260357 
L 155.300826 177.425485 
L 158.375207 180.861109 
L 161.449587 183.167873 
L 164.523967 185.838461 
L 167.598347 188.552527 
L 170.672727 190.383332 
L 173.747107 192.153422 
L 176.821488 193.731744 
L 179.895868 195.474121 
L 182.970248 197.315868 
L 186.044628 198.737751 
L 189.119008 200.296485 
L 192.193388 201.728935 
L 195.267769 202.946718 
L 198.342149 203.476308 
L 201.416529 204.384436 
L 204.490909 205.980264 
L 207.565289 206.816964 
L 210.639669 208.359495 
L 213.71405 209.147501 
L 216.78843 209.430197 
L 219.86281 210.352045 
L 222.93719 212.103723 
L 226.01157 212.578041 
L 229.08595 212.992421 
L 232.160331 214.224665 
L 235.234711 214.749323 
L 238.309091 215.194795 
L 241.383471 216.070318 
L 244.457851 216.190573 
L 247.532231 217.671654 
L 250.606612 217.419392 
L 253.680992 218.709763 
L 256.755372 219.432867 
L 259.829752 219.870558 
L 262.904132 219.979032 
L 265.978512 221.271182 
L 269.052893 221.329638 
L 272.127273 221.440764 
L 275.201653 222.819912 
L 278.276033 223.232753 
L 281.350413 223.794588 
L 284.424793 225.146194 
L 287.499174 225.201561 
L 290.573554 225.613339 
L 293.647934 225.879726 
L 296.722314 227.268769 
L 299.796694 227.197758 
L 302.871074 227.372785 
L 305.945455 227.972354 
L 309.019835 229.794512 
L 312.094215 230.339436 
L 315.168595 230.603328 
L 318.242975 231.655606 
L 321.317355 232.808551 
L 324.391736 232.866982 
L 327.466116 233.698718 
L 330.540496 234.527345 
L 333.614876 234.737067 
L 336.689256 235.086603 
L 339.763636 235.320447 
L 342.838017 235.94284 
L 345.912397 236.536394 
L 348.986777 235.88094 
L 352.061157 237.471278 
L 355.135537 237.339696 
L 358.209917 238.966506 
L 361.284298 238.794781 
L 364.358678 238.532623 
L 367.433058 238.809985 
L 370.507438 240.134542 
L 373.581818 240.176401 
" clip-path="url(#p253b7a7f62)" style="fill: none; stroke: #2ca02c; stroke-width: 1.5; stroke-linecap: square"/>
   </g>
   <g id="line2d_18">
    <path d="M 69.218182 46.2176 
L 72.292562 46.265743 
L 75.366942 46.280609 
L 78.441322 52.214327 
L 81.515702 63.190881 
L 84.590083 72.181881 
L 87.664463 71.559444 
L 90.738843 80.852014 
L 93.813223 92.530767 
L 96.887603 111.360508 
L 99.961983 115.914293 
L 103.036364 109.339321 
L 106.110744 44.443636 
L 109.185124 45.972379 
L 112.259504 46.381757 
L 115.333884 85.335599 
L 118.408264 106.287054 
L 121.482645 113.299211 
L 124.557025 131.40781 
L 127.631405 140.43985 
L 130.705785 148.429336 
L 133.780165 152.773177 
L 136.854545 158.157558 
L 139.928926 162.34398 
L 143.003306 164.116589 
L 146.077686 168.415618 
L 149.152066 173.845495 
L 152.226446 175.638517 
L 155.300826 179.711469 
L 158.375207 181.753004 
L 161.449587 184.246666 
L 164.523967 186.970418 
L 167.598347 189.213078 
L 170.672727 191.300736 
L 173.747107 192.054502 
L 176.821488 193.466845 
L 179.895868 196.463537 
L 182.970248 198.038421 
L 186.044628 199.665367 
L 189.119008 200.914971 
L 192.193388 203.481233 
L 195.267769 203.604117 
L 198.342149 204.119461 
L 201.416529 206.220744 
L 204.490909 207.448404 
L 207.565289 207.485942 
L 210.639669 208.73899 
L 213.71405 210.081898 
L 216.78843 211.537394 
L 219.86281 211.550943 
L 222.93719 212.770524 
L 226.01157 213.332377 
L 229.08595 214.821765 
L 232.160331 216.215987 
L 235.234711 214.916613 
L 238.309091 217.171669 
L 241.383471 216.55807 
L 244.457851 218.391042 
L 247.532231 218.310071 
L 250.606612 219.242708 
L 253.680992 219.96012 
L 256.755372 220.886957 
L 259.829752 221.346656 
L 262.904132 220.059325 
L 265.978512 222.589188 
L 269.052893 223.098455 
L 272.127273 222.596178 
L 275.201653 224.060772 
L 278.276033 224.96942 
L 281.350413 226.352746 
L 284.424793 226.757654 
L 287.499174 226.553921 
L 290.573554 228.099245 
L 293.647934 227.072279 
L 296.722314 226.765277 
L 299.796694 227.448539 
L 302.871074 230.12544 
L 305.945455 230.010863 
L 309.019835 231.592313 
L 312.094215 232.393196 
L 315.168595 232.530857 
L 318.242975 233.596487 
L 321.317355 233.638198 
L 324.391736 234.30125 
L 327.466116 236.144497 
L 330.540496 235.131922 
L 333.614876 235.375314 
L 336.689256 233.570434 
L 339.763636 236.729725 
L 342.838017 236.451188 
L 345.912397 237.349117 
L 348.986777 238.513819 
L 352.061157 238.041752 
L 355.135537 240.661428 
L 358.209917 240.053701 
L 361.284298 239.572349 
L 364.358678 239.874036 
L 367.433058 240.800443 
L 370.507438 241.251329 
L 373.581818 242.116364 
" clip-path="url(#p253b7a7f62)" style="fill: none; stroke: #d62728; stroke-width: 1.5; stroke-linecap: square"/>
   </g>
   <g id="patch_3">
    <path d="M 54 252 
L 54 34.56 
" style="fill: none; stroke: #000000; stroke-width: 0.8; stroke-linejoin: miter; stroke-linecap: square"/>
   </g>
   <g id="patch_4">
    <path d="M 388.8 252 
L 388.8 34.56 
" style="fill: none; stroke: #000000; stroke-width: 0.8; stroke-linejoin: miter; stroke-linecap: square"/>
   </g>
   <g id="patch_5">
    <path d="M 54 252 
L 388.8 252 
" style="fill: none; stroke: #000000; stroke-width: 0.8; stroke-linejoin: miter; stroke-linecap: square"/>
   </g>
   <g id="patch_6">
    <path d="M 54 34.56 
L 388.8 34.56 
" style="fill: none; stroke: #000000; stroke-width: 0.8; stroke-linejoin: miter; stroke-linecap: square"/>
   </g>
   <g id="text_17">
    <!-- Loss (categorical cross-entropy) -->
    <g transform="translate(125.539688 28.56)scale(0.12 -0.12)">
     <defs>
      <path id="DejaVuSans-4c" d="M 628 4666 
L 1259 4666 
L 1259 531 
L 3531 531 
L 3531 0 
L 628 0 
L 628 4666 
z
" transform="scale(0.015625)"/>
      <path id="DejaVuSans-28" d="M 1984 4856 
Q 1566 4138 1362 3434 
Q 1159 2731 1159 2009 
Q 1159 1288 1364 580 
Q 1569 -128 1984 -844 
L 1484 -844 
Q 1016 -109 783 600 
Q 550 1309 550 2009 
Q 550 2706 781 3412 
Q 1013 4119 1484 4856 
L 1984 4856 
z
" transform="scale(0.015625)"/>
      <path id="DejaVuSans-61" d="M 2194 1759 
Q 1497 1759 1228 1600 
Q 959 1441 959 1056 
Q 959 750 1161 570 
Q 1363 391 1709 391 
Q 2188 391 2477 730 
Q 2766 1069 2766 1631 
L 2766 1759 
L 2194 1759 
z
M 3341 1997 
L 3341 0 
L 2766 0 
L 2766 531 
Q 2569 213 2275 61 
Q 1981 -91 1556 -91 
Q 1019 -91 701 211 
Q 384 513 384 1019 
Q 384 1609 779 1909 
Q 1175 2209 1959 2209 
L 2766 2209 
L 2766 2266 
Q 2766 2663 2505 2880 
Q 2244 3097 1772 3097 
Q 1472 3097 1187 3025 
Q 903 2953 641 2809 
L 641 3341 
Q 956 3463 1253 3523 
Q 1550 3584 1831 3584 
Q 2591 3584 2966 3190 
Q 3341 2797 3341 1997 
z
" transform="scale(0.015625)"/>
      <path id="DejaVuSans-74" d="M 1172 4494 
L 1172 3500 
L 2356 3500 
L 2356 3053 
L 1172 3053 
L 1172 1153 
Q 1172 725 1289 603 
Q 1406 481 1766 481 
L 2356 481 
L 2356 0 
L 1766 0 
Q 1100 0 847 248 
Q 594 497 594 1153 
L 594 3053 
L 172 3053 
L 172 3500 
L 594 3500 
L 594 4494 
L 1172 4494 
z
" transform="scale(0.015625)"/>
      <path id="DejaVuSans-67" d="M 2906 1791 
Q 2906 2416 2648 2759 
Q 2391 3103 1925 3103 
Q 1463 3103 1205 2759 
Q 947 2416 947 1791 
Q 947 1169 1205 825 
Q 1463 481 1925 481 
Q 2391 481 2648 825 
Q 2906 1169 2906 1791 
z
M 3481 434 
Q 3481 -459 3084 -895 
Q 2688 -1331 1869 -1331 
Q 1566 -1331 1297 -1286 
Q 1028 -1241 775 -1147 
L 775 -588 
Q 1028 -725 1275 -790 
Q 1522 -856 1778 -856 
Q 2344 -856 2625 -561 
Q 2906 -266 2906 331 
L 2906 616 
Q 2728 306 2450 153 
Q 2172 0 1784 0 
Q 1141 0 747 490 
Q 353 981 353 1791 
Q 353 2603 747 3093 
Q 1141 3584 1784 3584 
Q 2172 3584 2450 3431 
Q 2728 3278 2906 2969 
L 2906 3500 
L 3481 3500 
L 3481 434 
z
" transform="scale(0.015625)"/>
      <path id="DejaVuSans-72" d="M 2631 2963 
Q 2534 3019 2420 3045 
Q 2306 3072 2169 3072 
Q 1681 3072 1420 2755 
Q 1159 2438 1159 1844 
L 1159 0 
L 581 0 
L 581 3500 
L 1159 3500 
L 1159 2956 
Q 1341 3275 1631 3429 
Q 1922 3584 2338 3584 
Q 2397 3584 2469 3576 
Q 2541 3569 2628 3553 
L 2631 2963 
z
" transform="scale(0.015625)"/>
      <path id="DejaVuSans-69" d="M 603 3500 
L 1178 3500 
L 1178 0 
L 603 0 
L 603 3500 
z
M 603 4863 
L 1178 4863 
L 1178 4134 
L 603 4134 
L 603 4863 
z
" transform="scale(0.015625)"/>
      <path id="DejaVuSans-2d" d="M 313 2009 
L 1997 2009 
L 1997 1497 
L 313 1497 
L 313 2009 
z
" transform="scale(0.015625)"/>
      <path id="DejaVuSans-6e" d="M 3513 2113 
L 3513 0 
L 2938 0 
L 2938 2094 
Q 2938 2591 2744 2837 
Q 2550 3084 2163 3084 
Q 1697 3084 1428 2787 
Q 1159 2491 1159 1978 
L 1159 0 
L 581 0 
L 581 3500 
L 1159 3500 
L 1159 2956 
Q 1366 3272 1645 3428 
Q 1925 3584 2291 3584 
Q 2894 3584 3203 3211 
Q 3513 2838 3513 2113 
z
" transform="scale(0.015625)"/>
      <path id="DejaVuSans-79" d="M 2059 -325 
Q 1816 -950 1584 -1140 
Q 1353 -1331 966 -1331 
L 506 -1331 
L 506 -850 
L 844 -850 
Q 1081 -850 1212 -737 
Q 1344 -625 1503 -206 
L 1606 56 
L 191 3500 
L 800 3500 
L 1894 763 
L 2988 3500 
L 3597 3500 
L 2059 -325 
z
" transform="scale(0.015625)"/>
      <path id="DejaVuSans-29" d="M 513 4856 
L 1013 4856 
Q 1481 4119 1714 3412 
Q 1947 2706 1947 2009 
Q 1947 1309 1714 600 
Q 1481 -109 1013 -844 
L 513 -844 
Q 928 -128 1133 580 
Q 1338 1288 1338 2009 
Q 1338 2731 1133 3434 
Q 928 4138 513 4856 
z
" transform="scale(0.015625)"/>
     </defs>
     <use xlink:href="#DejaVuSans-4c"/>
     <use xlink:href="#DejaVuSans-6f" x="53.962891"/>
     <use xlink:href="#DejaVuSans-73" x="115.144531"/>
     <use xlink:href="#DejaVuSans-73" x="167.244141"/>
     <use xlink:href="#DejaVuSans-20" x="219.34375"/>
     <use xlink:href="#DejaVuSans-28" x="251.130859"/>
     <use xlink:href="#DejaVuSans-63" x="290.144531"/>
     <use xlink:href="#DejaVuSans-61" x="345.125"/>
     <use xlink:href="#DejaVuSans-74" x="406.404297"/>
     <use xlink:href="#DejaVuSans-65" x="445.613281"/>
     <use xlink:href="#DejaVuSans-67" x="507.136719"/>
     <use xlink:href="#DejaVuSans-6f" x="570.613281"/>
     <use xlink:href="#DejaVuSans-72" x="631.794922"/>
     <use xlink:href="#DejaVuSans-69" x="672.908203"/>
     <use xlink:href="#DejaVuSans-63" x="700.691406"/>
     <use xlink:href="#DejaVuSans-61" x="755.671875"/>
     <use xlink:href="#DejaVuSans-6c" x="816.951172"/>
     <use xlink:href="#DejaVuSans-20" x="844.734375"/>
     <use xlink:href="#DejaVuSans-63" x="876.521484"/>
     <use xlink:href="#DejaVuSans-72" x="931.501953"/>
     <use xlink:href="#DejaVuSans-6f" x="970.365234"/>
     <use xlink:href="#DejaVuSans-73" x="1031.546875"/>
     <use xlink:href="#DejaVuSans-73" x="1083.646484"/>
     <use xlink:href="#DejaVuSans-2d" x="1135.746094"/>
     <use xlink:href="#DejaVuSans-65" x="1171.830078"/>
     <use xlink:href="#DejaVuSans-6e" x="1233.353516"/>
     <use xlink:href="#DejaVuSans-74" x="1296.732422"/>
     <use xlink:href="#DejaVuSans-72" x="1335.941406"/>
     <use xlink:href="#DejaVuSans-6f" x="1374.804688"/>
     <use xlink:href="#DejaVuSans-70" x="1435.986328"/>
     <use xlink:href="#DejaVuSans-79" x="1499.462891"/>
     <use xlink:href="#DejaVuSans-29" x="1558.642578"/>
    </g>
   </g>
   <g id="legend_1">
    <g id="patch_7">
     <path d="M 61 102.385 
L 178.442187 102.385 
Q 180.442187 102.385 180.442187 100.385 
L 180.442187 41.56 
Q 180.442187 39.56 178.442187 39.56 
L 61 39.56 
Q 59 39.56 59 41.56 
L 59 100.385 
Q 59 102.385 61 102.385 
z
" style="fill: #ffffff; opacity: 0.8; stroke: #cccccc; stroke-linejoin: miter"/>
    </g>
    <g id="line2d_19">
     <path d="M 63 47.658437 
L 73 47.658437 
L 83 47.658437 
" style="fill: none; stroke: #1f77b4; stroke-width: 1.5; stroke-linecap: square"/>
    </g>
    <g id="text_18">
     <!-- noLBE_train -->
     <g transform="translate(91 51.158437)scale(0.1 -0.1)">
      <defs>
       <path id="DejaVuSans-42" d="M 1259 2228 
L 1259 519 
L 2272 519 
Q 2781 519 3026 730 
Q 3272 941 3272 1375 
Q 3272 1813 3026 2020 
Q 2781 2228 2272 2228 
L 1259 2228 
z
M 1259 4147 
L 1259 2741 
L 2194 2741 
Q 2656 2741 2882 2914 
Q 3109 3088 3109 3444 
Q 3109 3797 2882 3972 
Q 2656 4147 2194 4147 
L 1259 4147 
z
M 628 4666 
L 2241 4666 
Q 2963 4666 3353 4366 
Q 3744 4066 3744 3513 
Q 3744 3084 3544 2831 
Q 3344 2578 2956 2516 
Q 3422 2416 3680 2098 
Q 3938 1781 3938 1306 
Q 3938 681 3513 340 
Q 3088 0 2303 0 
L 628 0 
L 628 4666 
z
" transform="scale(0.015625)"/>
       <path id="DejaVuSans-5f" d="M 3263 -1063 
L 3263 -1509 
L -63 -1509 
L -63 -1063 
L 3263 -1063 
z
" transform="scale(0.015625)"/>
      </defs>
      <use xlink:href="#DejaVuSans-6e"/>
      <use xlink:href="#DejaVuSans-6f" x="63.378906"/>
      <use xlink:href="#DejaVuSans-4c" x="124.560547"/>
      <use xlink:href="#DejaVuSans-42" x="180.273438"/>
      <use xlink:href="#DejaVuSans-45" x="248.876953"/>
      <use xlink:href="#DejaVuSans-5f" x="312.060547"/>
      <use xlink:href="#DejaVuSans-74" x="362.060547"/>
      <use xlink:href="#DejaVuSans-72" x="401.269531"/>
      <use xlink:href="#DejaVuSans-61" x="442.382812"/>
      <use xlink:href="#DejaVuSans-69" x="503.662109"/>
      <use xlink:href="#DejaVuSans-6e" x="531.445312"/>
     </g>
    </g>
    <g id="line2d_20">
     <path d="M 63 62.614688 
L 73 62.614688 
L 83 62.614688 
" style="fill: none; stroke: #ff7f0e; stroke-width: 1.5; stroke-linecap: square"/>
    </g>
    <g id="text_19">
     <!-- noLBE_validation -->
     <g transform="translate(91 66.114688)scale(0.1 -0.1)">
      <defs>
       <path id="DejaVuSans-76" d="M 191 3500 
L 800 3500 
L 1894 563 
L 2988 3500 
L 3597 3500 
L 2284 0 
L 1503 0 
L 191 3500 
z
" transform="scale(0.015625)"/>
       <path id="DejaVuSans-64" d="M 2906 2969 
L 2906 4863 
L 3481 4863 
L 3481 0 
L 2906 0 
L 2906 525 
Q 2725 213 2448 61 
Q 2172 -91 1784 -91 
Q 1150 -91 751 415 
Q 353 922 353 1747 
Q 353 2572 751 3078 
Q 1150 3584 1784 3584 
Q 2172 3584 2448 3432 
Q 2725 3281 2906 2969 
z
M 947 1747 
Q 947 1113 1208 752 
Q 1469 391 1925 391 
Q 2381 391 2643 752 
Q 2906 1113 2906 1747 
Q 2906 2381 2643 2742 
Q 2381 3103 1925 3103 
Q 1469 3103 1208 2742 
Q 947 2381 947 1747 
z
" transform="scale(0.015625)"/>
      </defs>
      <use xlink:href="#DejaVuSans-6e"/>
      <use xlink:href="#DejaVuSans-6f" x="63.378906"/>
      <use xlink:href="#DejaVuSans-4c" x="124.560547"/>
      <use xlink:href="#DejaVuSans-42" x="180.273438"/>
      <use xlink:href="#DejaVuSans-45" x="248.876953"/>
      <use xlink:href="#DejaVuSans-5f" x="312.060547"/>
      <use xlink:href="#DejaVuSans-76" x="362.060547"/>
      <use xlink:href="#DejaVuSans-61" x="421.240234"/>
      <use xlink:href="#DejaVuSans-6c" x="482.519531"/>
      <use xlink:href="#DejaVuSans-69" x="510.302734"/>
      <use xlink:href="#DejaVuSans-64" x="538.085938"/>
      <use xlink:href="#DejaVuSans-61" x="601.5625"/>
      <use xlink:href="#DejaVuSans-74" x="662.841797"/>
      <use xlink:href="#DejaVuSans-69" x="702.050781"/>
      <use xlink:href="#DejaVuSans-6f" x="729.833984"/>
      <use xlink:href="#DejaVuSans-6e" x="791.015625"/>
     </g>
    </g>
    <g id="line2d_21">
     <path d="M 63 77.570937 
L 73 77.570937 
L 83 77.570937 
" style="fill: none; stroke: #2ca02c; stroke-width: 1.5; stroke-linecap: square"/>
    </g>
    <g id="text_20">
     <!-- LBE_train -->
     <g transform="translate(91 81.070937)scale(0.1 -0.1)">
      <use xlink:href="#DejaVuSans-4c"/>
      <use xlink:href="#DejaVuSans-42" x="55.712891"/>
      <use xlink:href="#DejaVuSans-45" x="124.316406"/>
      <use xlink:href="#DejaVuSans-5f" x="187.5"/>
      <use xlink:href="#DejaVuSans-74" x="237.5"/>
      <use xlink:href="#DejaVuSans-72" x="276.708984"/>
      <use xlink:href="#DejaVuSans-61" x="317.822266"/>
      <use xlink:href="#DejaVuSans-69" x="379.101562"/>
      <use xlink:href="#DejaVuSans-6e" x="406.884766"/>
     </g>
    </g>
    <g id="line2d_22">
     <path d="M 63 92.527187 
L 73 92.527187 
L 83 92.527187 
" style="fill: none; stroke: #d62728; stroke-width: 1.5; stroke-linecap: square"/>
    </g>
    <g id="text_21">
     <!-- LBE_val -->
     <g transform="translate(91 96.027187)scale(0.1 -0.1)">
      <use xlink:href="#DejaVuSans-4c"/>
      <use xlink:href="#DejaVuSans-42" x="55.712891"/>
      <use xlink:href="#DejaVuSans-45" x="124.316406"/>
      <use xlink:href="#DejaVuSans-5f" x="187.5"/>
      <use xlink:href="#DejaVuSans-76" x="237.5"/>
      <use xlink:href="#DejaVuSans-61" x="296.679688"/>
      <use xlink:href="#DejaVuSans-6c" x="357.958984"/>
     </g>
    </g>
   </g>
  </g>
 </g>
 <defs>
  <clipPath id="p253b7a7f62">
   <rect x="54" y="34.56" width="334.8" height="217.44"/>
  </clipPath>
 </defs>
</svg>
